<svg width="861" height="282" viewBox="0 0 861 282" fill="none" xmlns="http://www.w3.org/2000/svg">
<g clip-path="url(#clip0_400_320)">
<path d="M0.279129 281.298C0.433288 281.298 0.558259 281.199 0.558259 281.078C0.558259 280.956 0.433288 280.858 0.279129 280.858C0.12497 280.858 0 280.956 0 281.078C0 281.199 0.12497 281.298 0.279129 281.298Z" fill="#FFDB45"/>
<path d="M2.22135 268.589C2.11345 268.589 2.00797 268.563 1.91825 268.516C1.82853 268.469 1.7586 268.402 1.71731 268.323C1.67602 268.245 1.66521 268.158 1.68626 268.075C1.70732 267.992 1.75928 267.915 1.83558 267.855C1.91187 267.795 2.00909 267.754 2.11492 267.737C2.22075 267.721 2.33044 267.729 2.43013 267.762C2.52982 267.794 2.61503 267.849 2.67498 267.92C2.73493 267.991 2.76692 268.074 2.76692 268.159C2.76692 268.215 2.75281 268.271 2.72539 268.323C2.69798 268.376 2.65779 268.423 2.60713 268.463C2.55647 268.503 2.49633 268.534 2.43013 268.556C2.36394 268.578 2.293 268.589 2.22135 268.589Z" fill="#FFDB45"/>
<path d="M4.49173 255.87C4.91216 255.87 5.25299 255.601 5.25299 255.27C5.25299 254.939 4.91216 254.67 4.49173 254.67C4.0713 254.67 3.73047 254.939 3.73047 255.27C3.73047 255.601 4.0713 255.87 4.49173 255.87Z" fill="#FFDB45"/>
<path d="M7.06583 243.181C6.87511 243.181 6.68868 243.137 6.53011 243.053C6.37154 242.97 6.24795 242.851 6.17496 242.712C6.10198 242.573 6.08288 242.421 6.12009 242.273C6.1573 242.126 6.24913 241.99 6.38399 241.884C6.51884 241.778 6.69066 241.706 6.87771 241.676C7.06476 241.647 7.25864 241.662 7.43484 241.719C7.61103 241.777 7.76163 241.874 7.86759 241.999C7.97354 242.124 8.03009 242.271 8.03009 242.421C8.03009 242.623 7.9285 242.816 7.74767 242.959C7.56683 243.101 7.32157 243.181 7.06583 243.181Z" fill="#FFDB45"/>
<path d="M9.96024 230.532C10.6049 230.532 11.1275 230.12 11.1275 229.613C11.1275 229.105 10.6049 228.693 9.96024 228.693C9.31557 228.693 8.79297 229.105 8.79297 229.613C8.79297 230.12 9.31557 230.532 9.96024 230.532Z" fill="#FFDB45"/>
<path d="M13.2199 217.933C12.9489 217.933 12.6839 217.87 12.4586 217.751C12.2333 217.633 12.0576 217.464 11.9539 217.267C11.8502 217.069 11.8231 216.852 11.8759 216.643C11.9288 216.433 12.0593 216.241 12.251 216.09C12.4426 215.939 12.6867 215.836 12.9526 215.795C13.2184 215.753 13.4939 215.774 13.7443 215.856C13.9946 215.938 14.2087 216.076 14.3592 216.254C14.5098 216.431 14.5902 216.64 14.5902 216.854C14.5868 217.139 14.4414 217.412 14.1852 217.614C13.9289 217.816 13.5823 217.931 13.2199 217.933Z" fill="#FFDB45"/>
<path d="M17.2432 205.435C17.0366 205.435 16.832 205.403 16.6411 205.34C16.4503 205.278 16.2768 205.187 16.1307 205.072C15.9846 204.957 15.8687 204.82 15.7897 204.669C15.7106 204.519 15.6699 204.358 15.6699 204.195C15.6699 204.032 15.7106 203.871 15.7897 203.721C15.8687 203.57 15.9846 203.434 16.1307 203.319C16.2768 203.204 16.4503 203.112 16.6411 203.05C16.832 202.988 17.0366 202.956 17.2432 202.956C17.6605 202.956 18.0606 203.086 18.3557 203.319C18.6507 203.551 18.8165 203.866 18.8165 204.195C18.8165 204.524 18.6507 204.839 18.3557 205.072C18.0606 205.304 17.6605 205.435 17.2432 205.435Z" fill="#FFDB45"/>
<path d="M22.5712 193.325C23.5522 193.325 24.3475 192.699 24.3475 191.926C24.3475 191.153 23.5522 190.526 22.5712 190.526C21.5902 190.526 20.7949 191.153 20.7949 191.926C20.7949 192.699 21.5902 193.325 22.5712 193.325Z" fill="#FFDB45"/>
<path d="M29.6882 181.737C29.2972 181.743 28.9128 181.657 28.5841 181.49C28.2555 181.323 27.9975 181.082 27.8432 180.799C27.6889 180.516 27.6452 180.203 27.7177 179.9C27.7903 179.597 27.9758 179.319 28.2505 179.099C28.5253 178.88 28.8768 178.73 29.2601 178.669C29.6434 178.608 30.0412 178.638 30.4025 178.756C30.7639 178.874 31.0724 179.074 31.2887 179.331C31.505 179.587 31.6192 179.889 31.6167 180.197C31.6168 180.602 31.4144 180.991 31.0535 181.279C30.6925 181.567 30.202 181.732 29.6882 181.737Z" fill="#FFDB45"/>
<path d="M39.0157 171.138C38.6013 171.138 38.1962 171.041 37.851 170.861C37.5059 170.68 37.236 170.423 37.0752 170.122C36.9144 169.821 36.8698 169.49 36.9471 169.169C37.0243 168.848 37.2199 168.553 37.5094 168.319C37.7989 168.085 38.1694 167.924 38.5746 167.856C38.9797 167.787 39.4015 167.814 39.7872 167.934C40.1728 168.053 40.5051 168.26 40.7425 168.528C40.9799 168.795 41.1119 169.112 41.1219 169.438C41.1269 169.659 41.0762 169.879 40.9728 170.084C40.8694 170.289 40.7152 170.477 40.5193 170.635C40.3234 170.793 40.0896 170.919 39.8315 171.005C39.5734 171.091 39.2961 171.136 39.0157 171.138Z" fill="#FFDB45"/>
<path d="M50.5093 161.918C50.0616 161.92 49.6232 161.817 49.2499 161.622C48.8766 161.428 48.5851 161.15 48.4126 160.824C48.2401 160.499 48.1943 160.14 48.2811 159.794C48.3678 159.448 48.5831 159.13 48.8998 158.881C49.2164 158.631 49.6199 158.461 50.0592 158.393C50.4985 158.325 50.9536 158.361 51.3668 158.497C51.78 158.633 52.1326 158.862 52.3797 159.156C52.6269 159.451 52.7576 159.796 52.7551 160.149C52.7517 160.617 52.5141 161.066 52.0936 161.397C51.6732 161.728 51.1039 161.915 50.5093 161.918Z" fill="#FFDB45"/>
<path d="M63.73 154.259C63.2557 154.259 62.7921 154.148 62.3978 153.941C62.0034 153.733 61.6961 153.438 61.5146 153.093C61.3331 152.748 61.2856 152.368 61.3781 152.001C61.4706 151.635 61.699 151.298 62.0344 151.034C62.3697 150.77 62.797 150.59 63.2622 150.517C63.7273 150.444 64.2095 150.481 64.6477 150.624C65.0858 150.767 65.4604 151.009 65.7239 151.32C65.9873 151.631 66.128 151.996 66.128 152.37C66.1297 152.618 66.0688 152.865 65.9489 153.094C65.829 153.324 65.6524 153.533 65.4294 153.709C65.2064 153.884 64.9414 154.024 64.6497 154.118C64.358 154.212 64.0454 154.26 63.73 154.259Z" fill="#FFDB45"/>
<path d="M78.2065 148.13C79.6149 148.13 80.7567 147.231 80.7567 146.121C80.7567 145.011 79.6149 144.111 78.2065 144.111C76.798 144.111 75.6562 145.011 75.6562 146.121C75.6562 147.231 76.798 148.13 78.2065 148.13Z" fill="#FFDB45"/>
<path d="M93.4965 143.331C94.968 143.331 96.1609 142.391 96.1609 141.231C96.1609 140.071 94.968 139.131 93.4965 139.131C92.0249 139.131 90.832 140.071 90.832 141.231C90.832 142.391 92.0249 143.331 93.4965 143.331Z" fill="#FFDB45"/>
<path d="M109.292 139.661C110.827 139.661 112.071 138.681 112.071 137.472C112.071 136.262 110.827 135.282 109.292 135.282C107.758 135.282 106.514 136.262 106.514 137.472C106.514 138.681 107.758 139.661 109.292 139.661Z" fill="#FFDB45"/>
<path d="M125.417 136.921C127.008 136.921 128.297 135.905 128.297 134.652C128.297 133.398 127.008 132.382 125.417 132.382C123.827 132.382 122.537 133.398 122.537 134.652C122.537 135.905 123.827 136.921 125.417 136.921Z" fill="#FFDB45"/>
<path d="M141.708 134.912C143.355 134.912 144.69 133.86 144.69 132.562C144.69 131.264 143.355 130.212 141.708 130.212C140.061 130.212 138.727 131.264 138.727 132.562C138.727 133.86 140.061 134.912 141.708 134.912Z" fill="#FFDB45"/>
<path d="M158.102 133.442C157.489 133.442 156.89 133.299 156.38 133.03C155.871 132.762 155.474 132.38 155.24 131.934C155.006 131.487 154.946 130.996 155.066 130.523C155.187 130.049 155.483 129.614 155.917 129.274C156.351 128.933 156.904 128.701 157.505 128.608C158.107 128.515 158.73 128.565 159.295 128.751C159.861 128.937 160.343 129.252 160.682 129.654C161.021 130.057 161.2 130.529 161.197 131.012C161.197 131.332 161.117 131.649 160.962 131.944C160.806 132.24 160.578 132.508 160.29 132.734C160.002 132.96 159.661 133.138 159.285 133.26C158.91 133.381 158.508 133.443 158.102 133.442Z" fill="#FFDB45"/>
<path d="M174.557 132.44C173.924 132.44 173.306 132.292 172.78 132.015C172.255 131.738 171.845 131.345 171.603 130.884C171.361 130.424 171.297 129.917 171.421 129.429C171.544 128.94 171.849 128.491 172.296 128.138C172.743 127.786 173.313 127.546 173.933 127.449C174.553 127.352 175.196 127.401 175.78 127.592C176.364 127.783 176.864 128.106 177.215 128.52C177.566 128.935 177.754 129.422 177.754 129.92C177.754 130.588 177.417 131.229 176.818 131.702C176.218 132.174 175.405 132.44 174.557 132.44Z" fill="#FFDB45"/>
<path d="M191.026 131.65C192.827 131.65 194.287 130.5 194.287 129.08C194.287 127.661 192.827 126.511 191.026 126.511C189.225 126.511 187.766 127.661 187.766 129.08C187.766 130.5 189.225 131.65 191.026 131.65Z" fill="#FFDB45"/>
<path d="M207.507 130.95C206.847 130.95 206.202 130.796 205.653 130.507C205.104 130.218 204.676 129.808 204.424 129.327C204.171 128.847 204.105 128.318 204.234 127.808C204.363 127.298 204.681 126.829 205.147 126.461C205.614 126.093 206.209 125.843 206.856 125.741C207.503 125.64 208.174 125.692 208.784 125.891C209.393 126.09 209.915 126.427 210.281 126.86C210.648 127.292 210.844 127.801 210.844 128.321C210.845 128.666 210.76 129.009 210.593 129.329C210.426 129.648 210.18 129.939 209.87 130.183C209.56 130.428 209.191 130.621 208.786 130.753C208.38 130.885 207.945 130.952 207.507 130.95Z" fill="#FFDB45"/>
<path d="M224.001 130.34C223.327 130.342 222.668 130.187 222.107 129.893C221.546 129.599 221.108 129.181 220.849 128.691C220.59 128.201 220.522 127.661 220.653 127.14C220.783 126.62 221.108 126.141 221.584 125.766C222.06 125.39 222.667 125.135 223.328 125.032C223.989 124.929 224.673 124.983 225.295 125.187C225.917 125.391 226.448 125.736 226.821 126.178C227.193 126.62 227.391 127.14 227.388 127.671C227.385 128.378 227.027 129.055 226.393 129.556C225.758 130.056 224.898 130.338 224.001 130.34Z" fill="#FFDB45"/>
<path d="M240.495 129.84C239.809 129.84 239.139 129.68 238.569 129.38C237.999 129.079 237.555 128.652 237.294 128.153C237.032 127.654 236.964 127.104 237.099 126.574C237.233 126.045 237.565 125.558 238.05 125.177C238.536 124.795 239.154 124.536 239.827 124.432C240.5 124.328 241.197 124.383 241.829 124.592C242.462 124.8 243.002 125.151 243.381 125.601C243.76 126.052 243.961 126.58 243.959 127.121C243.959 127.479 243.869 127.833 243.695 128.164C243.521 128.494 243.265 128.795 242.943 129.047C242.622 129.3 242.24 129.5 241.82 129.636C241.399 129.772 240.949 129.842 240.495 129.84Z" fill="#FFDB45"/>
<path d="M257.002 129.46C258.95 129.46 260.529 128.216 260.529 126.681C260.529 125.145 258.95 123.901 257.002 123.901C255.054 123.901 253.475 125.145 253.475 126.681C253.475 128.216 255.054 129.46 257.002 129.46Z" fill="#FFDB45"/>
<path d="M273.497 129.17C272.787 129.17 272.092 129.004 271.502 128.693C270.912 128.382 270.451 127.94 270.18 127.423C269.908 126.906 269.837 126.337 269.975 125.788C270.114 125.24 270.456 124.735 270.958 124.34C271.46 123.944 272.1 123.674 272.796 123.565C273.493 123.456 274.215 123.512 274.871 123.726C275.527 123.94 276.088 124.303 276.482 124.768C276.877 125.234 277.087 125.781 277.087 126.34C277.087 127.091 276.709 127.811 276.036 128.341C275.362 128.872 274.449 129.17 273.497 129.17Z" fill="#FFDB45"/>
<path d="M290.004 128.99C289.28 128.99 288.573 128.821 287.972 128.504C287.371 128.188 286.903 127.737 286.627 127.21C286.35 126.684 286.279 126.104 286.421 125.545C286.563 124.986 286.912 124.473 287.424 124.071C287.937 123.669 288.589 123.395 289.299 123.285C290.008 123.175 290.743 123.234 291.411 123.453C292.078 123.673 292.648 124.043 293.048 124.518C293.448 124.993 293.66 125.551 293.658 126.121C293.654 126.883 293.268 127.613 292.583 128.15C291.898 128.688 290.971 128.99 290.004 128.99Z" fill="#FFDB45"/>
<path d="M306.522 128.89C305.797 128.89 305.088 128.721 304.485 128.403C303.882 128.086 303.412 127.634 303.135 127.106C302.857 126.578 302.784 125.997 302.926 125.437C303.067 124.876 303.417 124.361 303.929 123.957C304.442 123.553 305.096 123.278 305.807 123.166C306.518 123.055 307.255 123.112 307.925 123.331C308.595 123.55 309.168 123.92 309.571 124.395C309.974 124.87 310.189 125.429 310.189 126.001C310.189 126.767 309.803 127.502 309.115 128.044C308.427 128.586 307.495 128.89 306.522 128.89Z" fill="#FFDB45"/>
<path d="M323.028 128.901C325.067 128.901 326.72 127.598 326.72 125.991C326.72 124.384 325.067 123.081 323.028 123.081C320.989 123.081 319.336 124.384 319.336 125.991C319.336 127.598 320.989 128.901 323.028 128.901Z" fill="#FFDB45"/>
<path d="M339.535 129.001C338.802 129.001 338.086 128.829 337.477 128.509C336.867 128.188 336.393 127.732 336.112 127.198C335.832 126.665 335.758 126.078 335.901 125.511C336.044 124.945 336.397 124.425 336.915 124.016C337.433 123.608 338.093 123.33 338.812 123.217C339.531 123.105 340.276 123.162 340.953 123.383C341.63 123.604 342.208 123.979 342.615 124.459C343.022 124.939 343.24 125.503 343.24 126.081C343.24 126.855 342.849 127.598 342.155 128.145C341.46 128.693 340.517 129.001 339.535 129.001Z" fill="#FFDB45"/>
<path d="M356.043 129.22C355.305 129.22 354.584 129.048 353.97 128.725C353.357 128.402 352.879 127.943 352.596 127.406C352.314 126.868 352.24 126.277 352.384 125.707C352.528 125.137 352.883 124.613 353.405 124.202C353.927 123.791 354.591 123.511 355.315 123.397C356.039 123.284 356.789 123.342 357.47 123.565C358.152 123.787 358.734 124.164 359.144 124.647C359.554 125.131 359.773 125.699 359.773 126.281C359.773 127.06 359.38 127.808 358.68 128.359C357.981 128.911 357.032 129.22 356.043 129.22Z" fill="#FFDB45"/>
<path d="M372.548 129.55C371.796 129.55 371.06 129.374 370.434 129.045C369.808 128.715 369.32 128.247 369.032 127.698C368.744 127.15 368.668 126.547 368.815 125.965C368.962 125.383 369.325 124.849 369.857 124.429C370.389 124.01 371.068 123.724 371.806 123.608C372.544 123.493 373.31 123.552 374.005 123.779C374.701 124.006 375.295 124.391 375.713 124.884C376.132 125.377 376.355 125.957 376.355 126.55C376.355 127.346 375.954 128.109 375.24 128.672C374.526 129.234 373.558 129.55 372.548 129.55Z" fill="#FFDB45"/>
<path d="M389.056 129.98C388.303 129.98 387.568 129.804 386.942 129.475C386.316 129.145 385.828 128.677 385.54 128.129C385.252 127.58 385.176 126.977 385.323 126.395C385.47 125.814 385.833 125.279 386.365 124.86C386.897 124.44 387.575 124.154 388.314 124.039C389.052 123.923 389.817 123.982 390.513 124.209C391.208 124.436 391.803 124.821 392.221 125.314C392.639 125.807 392.863 126.387 392.863 126.981C392.863 127.776 392.462 128.539 391.748 129.102C391.034 129.664 390.066 129.98 389.056 129.98Z" fill="#FFDB45"/>
<path d="M405.55 130.52C407.645 130.52 409.343 129.182 409.343 127.531C409.343 125.88 407.645 124.541 405.55 124.541C403.454 124.541 401.756 125.88 401.756 127.531C401.756 129.182 403.454 130.52 405.55 130.52Z" fill="#FFDB45"/>
<path d="M422.045 131.15C421.292 131.15 420.556 130.974 419.93 130.645C419.304 130.315 418.816 129.847 418.528 129.299C418.24 128.75 418.165 128.147 418.311 127.565C418.458 126.983 418.821 126.449 419.353 126.029C419.885 125.61 420.564 125.324 421.302 125.209C422.04 125.093 422.806 125.152 423.501 125.379C424.197 125.606 424.791 125.991 425.209 126.484C425.628 126.977 425.851 127.557 425.851 128.151C425.851 128.946 425.45 129.709 424.736 130.272C424.022 130.834 423.054 131.15 422.045 131.15Z" fill="#FFDB45"/>
<path d="M438.525 131.87C437.772 131.87 437.036 131.694 436.41 131.364C435.784 131.035 435.297 130.566 435.008 130.018C434.72 129.47 434.645 128.867 434.792 128.285C434.939 127.703 435.301 127.169 435.834 126.749C436.366 126.33 437.044 126.044 437.782 125.928C438.521 125.813 439.286 125.872 439.982 126.099C440.677 126.326 441.272 126.71 441.69 127.204C442.108 127.697 442.331 128.277 442.331 128.87C442.331 129.666 441.93 130.429 441.217 130.991C440.503 131.554 439.535 131.87 438.525 131.87Z" fill="#FFDB45"/>
<path d="M455.006 132.7C454.251 132.71 453.509 132.543 452.875 132.219C452.241 131.896 451.743 131.431 451.445 130.883C451.147 130.336 451.063 129.732 451.202 129.147C451.342 128.561 451.699 128.022 452.229 127.598C452.759 127.173 453.437 126.882 454.177 126.763C454.917 126.643 455.685 126.699 456.385 126.925C457.084 127.15 457.682 127.535 458.103 128.029C458.524 128.523 458.749 129.105 458.749 129.7C458.749 130.487 458.357 131.243 457.657 131.804C456.957 132.365 456.005 132.687 455.006 132.7Z" fill="#FFDB45"/>
<path d="M471.462 133.63C470.721 133.63 469.997 133.457 469.381 133.132C468.765 132.808 468.285 132.346 468.002 131.807C467.72 131.267 467.646 130.673 467.792 130.101C467.937 129.529 468.295 129.003 468.82 128.591C469.344 128.179 470.012 127.899 470.739 127.786C471.466 127.673 472.219 127.733 472.903 127.958C473.586 128.183 474.17 128.562 474.58 129.049C474.99 129.535 475.207 130.106 475.204 130.69C475.204 131.077 475.108 131.46 474.919 131.817C474.731 132.175 474.455 132.499 474.107 132.772C473.76 133.046 473.347 133.262 472.893 133.409C472.439 133.556 471.953 133.631 471.462 133.63Z" fill="#FFDB45"/>
<path d="M487.93 134.652C489.983 134.652 491.648 133.34 491.648 131.722C491.648 130.104 489.983 128.792 487.93 128.792C485.877 128.792 484.213 130.104 484.213 131.722C484.213 133.34 485.877 134.652 487.93 134.652Z" fill="#FFDB45"/>
<path d="M504.387 135.702C506.427 135.702 508.08 134.399 508.08 132.792C508.08 131.185 506.427 129.882 504.387 129.882C502.348 129.882 500.695 131.185 500.695 132.792C500.695 134.399 502.348 135.702 504.387 135.702Z" fill="#FFDB45"/>
<path d="M520.83 136.742C520.105 136.74 519.398 136.569 518.796 136.25C518.195 135.931 517.727 135.479 517.451 134.951C517.176 134.423 517.105 133.842 517.248 133.282C517.391 132.722 517.741 132.208 518.254 131.805C518.768 131.402 519.421 131.128 520.132 131.017C520.843 130.907 521.579 130.964 522.249 131.183C522.918 131.402 523.49 131.773 523.892 132.248C524.295 132.723 524.509 133.281 524.509 133.852C524.509 134.232 524.414 134.609 524.229 134.96C524.044 135.312 523.773 135.631 523.431 135.899C523.089 136.167 522.683 136.38 522.237 136.525C521.791 136.669 521.312 136.743 520.83 136.742Z" fill="#FFDB45"/>
<path d="M537.3 137.741C536.576 137.743 535.869 137.576 535.266 137.261C534.663 136.946 534.193 136.497 533.915 135.971C533.636 135.445 533.562 134.865 533.701 134.306C533.841 133.747 534.188 133.233 534.699 132.829C535.209 132.425 535.86 132.15 536.569 132.038C537.279 131.926 538.014 131.983 538.682 132.2C539.351 132.418 539.922 132.787 540.324 133.261C540.726 133.735 540.941 134.292 540.941 134.862C540.941 135.624 540.558 136.355 539.875 136.894C539.193 137.434 538.266 137.739 537.3 137.741Z" fill="#FFDB45"/>
<path d="M553.766 138.612C555.749 138.612 557.357 137.345 557.357 135.782C557.357 134.219 555.749 132.952 553.766 132.952C551.783 132.952 550.176 134.219 550.176 135.782C550.176 137.345 551.783 138.612 553.766 138.612Z" fill="#FFDB45"/>
<path d="M570.248 139.341C569.55 139.341 568.868 139.178 568.288 138.873C567.708 138.567 567.256 138.133 566.989 137.625C566.722 137.117 566.652 136.558 566.788 136.019C566.925 135.48 567.261 134.985 567.754 134.596C568.247 134.207 568.876 133.942 569.56 133.835C570.244 133.728 570.953 133.783 571.598 133.993C572.242 134.204 572.793 134.56 573.181 135.017C573.568 135.474 573.775 136.012 573.775 136.561C573.775 137.299 573.403 138.006 572.742 138.527C572.081 139.048 571.183 139.341 570.248 139.341Z" fill="#FFDB45"/>
<path d="M586.743 139.881C586.058 139.881 585.388 139.721 584.819 139.421C584.249 139.121 583.805 138.695 583.543 138.196C583.281 137.697 583.212 137.149 583.346 136.619C583.479 136.09 583.809 135.603 584.294 135.221C584.778 134.84 585.395 134.58 586.067 134.474C586.739 134.369 587.436 134.423 588.069 134.63C588.701 134.836 589.242 135.186 589.623 135.635C590.004 136.084 590.207 136.612 590.207 137.152C590.203 137.875 589.837 138.568 589.189 139.079C588.54 139.59 587.661 139.879 586.743 139.881Z" fill="#FFDB45"/>
<path d="M603.236 140.192C602.564 140.192 601.906 140.034 601.347 139.74C600.788 139.445 600.352 139.027 600.095 138.537C599.837 138.048 599.77 137.509 599.901 136.989C600.032 136.469 600.356 135.992 600.832 135.617C601.307 135.242 601.913 134.987 602.573 134.884C603.232 134.78 603.916 134.833 604.537 135.036C605.159 135.239 605.69 135.582 606.063 136.023C606.437 136.464 606.637 136.982 606.637 137.512C606.637 138.222 606.278 138.904 605.641 139.407C605.003 139.909 604.138 140.192 603.236 140.192Z" fill="#FFDB45"/>
<path d="M619.743 140.231C619.08 140.233 618.431 140.08 617.879 139.791C617.326 139.502 616.895 139.091 616.639 138.609C616.384 138.126 616.316 137.595 616.444 137.083C616.571 136.57 616.889 136.099 617.357 135.728C617.825 135.358 618.422 135.106 619.072 135.003C619.722 134.9 620.396 134.952 621.009 135.152C621.622 135.351 622.146 135.689 622.515 136.124C622.883 136.558 623.08 137.069 623.08 137.591C623.08 138.29 622.729 138.96 622.103 139.454C621.478 139.949 620.629 140.228 619.743 140.231Z" fill="#FFDB45"/>
<path d="M636.25 139.941C635.599 139.943 634.963 139.793 634.421 139.51C633.879 139.226 633.456 138.822 633.205 138.349C632.954 137.876 632.887 137.355 633.013 136.852C633.138 136.349 633.45 135.887 633.909 135.524C634.368 135.161 634.954 134.913 635.592 134.812C636.229 134.711 636.891 134.762 637.492 134.958C638.093 135.154 638.607 135.486 638.969 135.912C639.33 136.338 639.523 136.839 639.523 137.351C639.523 138.037 639.179 138.694 638.565 139.179C637.952 139.665 637.119 139.939 636.25 139.941Z" fill="#FFDB45"/>
<path d="M652.745 139.281C652.11 139.281 651.49 139.133 650.962 138.855C650.434 138.577 650.022 138.182 649.78 137.72C649.537 137.257 649.473 136.749 649.597 136.258C649.721 135.767 650.026 135.316 650.475 134.963C650.924 134.609 651.496 134.368 652.119 134.27C652.742 134.173 653.387 134.223 653.974 134.414C654.56 134.606 655.061 134.93 655.414 135.346C655.767 135.762 655.955 136.251 655.955 136.751C655.955 137.422 655.617 138.066 655.015 138.54C654.413 139.015 653.596 139.281 652.745 139.281Z" fill="#FFDB45"/>
<path d="M669.213 138.171C668.597 138.173 667.994 138.031 667.481 137.763C666.968 137.494 666.568 137.112 666.331 136.664C666.094 136.216 666.031 135.722 666.151 135.246C666.27 134.77 666.567 134.333 667.002 133.989C667.438 133.646 667.993 133.413 668.597 133.319C669.201 133.224 669.827 133.274 670.396 133.46C670.964 133.647 671.45 133.963 671.79 134.367C672.131 134.771 672.311 135.246 672.309 135.732C672.305 136.378 671.978 136.997 671.398 137.454C670.818 137.911 670.033 138.169 669.213 138.171Z" fill="#FFDB45"/>
<path d="M685.606 136.582C685.01 136.584 684.428 136.446 683.932 136.187C683.435 135.928 683.048 135.559 682.819 135.126C682.589 134.693 682.528 134.216 682.642 133.756C682.757 133.296 683.042 132.872 683.462 132.54C683.882 132.207 684.418 131.981 685.002 131.889C685.585 131.796 686.19 131.843 686.741 132.022C687.291 132.201 687.761 132.505 688.092 132.894C688.423 133.284 688.6 133.743 688.6 134.212C688.6 134.839 688.285 135.44 687.724 135.884C687.163 136.328 686.401 136.579 685.606 136.582Z" fill="#FFDB45"/>
<path d="M701.897 134.382C701.325 134.382 700.765 134.248 700.29 133.998C699.814 133.747 699.443 133.391 699.224 132.974C699.005 132.558 698.948 132.1 699.06 131.657C699.171 131.215 699.447 130.809 699.851 130.49C700.256 130.171 700.771 129.954 701.332 129.866C701.894 129.778 702.475 129.823 703.004 129.996C703.532 130.168 703.984 130.461 704.302 130.835C704.62 131.21 704.789 131.651 704.789 132.102C704.789 132.707 704.485 133.287 703.942 133.714C703.4 134.142 702.664 134.382 701.897 134.382Z" fill="#FFDB45"/>
<path d="M718.022 131.44C717.469 131.44 716.929 131.311 716.47 131.069C716.01 130.827 715.653 130.482 715.442 130.08C715.231 129.677 715.176 129.234 715.285 128.807C715.394 128.38 715.661 127.989 716.053 127.681C716.444 127.374 716.943 127.165 717.485 127.082C718.027 126.998 718.589 127.043 719.099 127.211C719.609 127.379 720.044 127.662 720.349 128.025C720.654 128.389 720.816 128.815 720.813 129.25C720.813 129.539 720.741 129.824 720.6 130.091C720.46 130.357 720.254 130.599 719.995 130.802C719.735 131.006 719.428 131.167 719.089 131.276C718.75 131.386 718.388 131.441 718.022 131.44Z" fill="#FFDB45"/>
<path d="M733.857 127.741C733.324 127.743 732.803 127.62 732.359 127.388C731.915 127.156 731.568 126.826 731.363 126.439C731.157 126.052 731.102 125.625 731.204 125.213C731.307 124.801 731.562 124.423 731.938 124.125C732.313 123.828 732.793 123.625 733.315 123.542C733.837 123.46 734.378 123.501 734.871 123.661C735.363 123.822 735.784 124.093 736.08 124.442C736.376 124.791 736.534 125.201 736.534 125.621C736.536 125.899 736.468 126.174 736.334 126.431C736.2 126.688 736.003 126.922 735.754 127.119C735.505 127.316 735.21 127.472 734.884 127.579C734.559 127.686 734.209 127.741 733.857 127.741Z" fill="#FFDB45"/>
<path d="M749.297 123.051C748.795 123.051 748.305 122.934 747.888 122.714C747.47 122.494 747.145 122.182 746.953 121.816C746.761 121.451 746.711 121.049 746.809 120.661C746.906 120.273 747.148 119.917 747.503 119.637C747.858 119.357 748.31 119.167 748.802 119.09C749.295 119.013 749.805 119.052 750.268 119.203C750.732 119.355 751.128 119.611 751.407 119.94C751.686 120.269 751.835 120.656 751.835 121.051C751.835 121.581 751.568 122.09 751.092 122.465C750.616 122.84 749.97 123.051 749.297 123.051Z" fill="#FFDB45"/>
<path d="M764.192 117.31C763.715 117.31 763.249 117.199 762.853 116.99C762.456 116.782 762.147 116.485 761.965 116.138C761.782 115.791 761.735 115.409 761.828 115.041C761.921 114.672 762.15 114.334 762.487 114.068C762.824 113.802 763.254 113.621 763.722 113.548C764.189 113.475 764.674 113.513 765.114 113.656C765.555 113.8 765.931 114.043 766.196 114.356C766.461 114.668 766.603 115.035 766.603 115.411C766.603 115.915 766.349 116.398 765.897 116.754C765.444 117.11 764.831 117.31 764.192 117.31Z" fill="#FFDB45"/>
<path d="M778.327 110.441C777.877 110.443 777.437 110.34 777.062 110.145C776.686 109.949 776.393 109.671 776.22 109.344C776.046 109.017 775.999 108.657 776.085 108.309C776.171 107.961 776.387 107.642 776.704 107.39C777.021 107.139 777.425 106.968 777.866 106.898C778.307 106.828 778.765 106.863 779.18 106.998C779.596 107.133 779.951 107.363 780.202 107.657C780.452 107.951 780.585 108.298 780.585 108.652C780.585 109.125 780.348 109.579 779.924 109.914C779.501 110.249 778.927 110.439 778.327 110.441Z" fill="#FFDB45"/>
<path d="M791.572 102.612C792.742 102.612 793.691 101.865 793.691 100.943C793.691 100.021 792.742 99.2734 791.572 99.2734C790.402 99.2734 789.453 100.021 789.453 100.943C789.453 101.865 790.402 102.612 791.572 102.612Z" fill="#FFDB45"/>
<path d="M803.855 93.7927C803.466 93.7927 803.086 93.7019 802.763 93.5316C802.439 93.3614 802.187 93.1194 802.038 92.8362C801.89 92.5531 801.851 92.2416 801.926 91.941C802.002 91.6405 802.19 91.3644 802.465 91.1477C802.74 90.931 803.09 90.7834 803.472 90.7236C803.853 90.6638 804.249 90.6945 804.608 90.8118C804.967 90.9291 805.274 91.1277 805.49 91.3825C805.707 91.6373 805.822 91.9368 805.822 92.2433C805.824 92.4471 805.774 92.6492 805.676 92.8378C805.577 93.0264 805.433 93.1977 805.25 93.3419C805.067 93.486 804.849 93.6001 804.61 93.6775C804.371 93.7549 804.114 93.7941 803.855 93.7927Z" fill="#FFDB45"/>
<path d="M815.096 84.1339C814.742 84.1339 814.396 84.0513 814.102 83.8964C813.808 83.7415 813.578 83.5214 813.443 83.2638C813.307 83.0063 813.272 82.7229 813.341 82.4495C813.41 82.176 813.58 81.9249 813.831 81.7278C814.081 81.5307 814.4 81.3964 814.747 81.342C815.094 81.2876 815.453 81.3156 815.78 81.4222C816.107 81.5289 816.387 81.7096 816.583 81.9414C816.78 82.1732 816.885 82.4457 816.885 82.7244C816.885 83.0983 816.696 83.4568 816.361 83.7211C816.025 83.9854 815.57 84.1339 815.096 84.1339Z" fill="#FFDB45"/>
<path d="M825.246 73.7149C824.933 73.7149 824.628 73.6421 824.368 73.5057C824.107 73.3692 823.904 73.1752 823.783 72.9481C823.662 72.7209 823.63 72.4707 823.689 72.2289C823.748 71.987 823.896 71.7644 824.116 71.5888C824.335 71.4133 824.615 71.2928 824.921 71.2423C825.227 71.1919 825.545 71.2138 825.835 71.3053C826.126 71.3968 826.375 71.5539 826.552 71.7567C826.73 71.9595 826.827 72.1991 826.832 72.4454C826.835 72.6112 826.797 72.7758 826.719 72.9297C826.64 73.0836 826.524 73.2237 826.376 73.3419C826.229 73.4601 826.053 73.5539 825.859 73.6179C825.665 73.682 825.456 73.7149 825.246 73.7149Z" fill="#FFDB45"/>
<path d="M834.268 62.6563C833.994 62.6563 833.726 62.5921 833.498 62.4719C833.27 62.3517 833.093 62.181 832.989 61.9813C832.885 61.7816 832.858 61.562 832.912 61.3504C832.967 61.1388 833.1 60.9446 833.294 60.7927C833.489 60.6407 833.737 60.5377 834.006 60.4968C834.275 60.4559 834.553 60.4789 834.806 60.5629C835.058 60.6469 835.273 60.7881 835.424 60.9686C835.574 61.1491 835.653 61.3607 835.651 61.5767C835.651 61.7193 835.615 61.8605 835.545 61.9921C835.475 62.1238 835.373 62.2432 835.245 62.3436C835.116 62.444 834.964 62.5233 834.796 62.577C834.628 62.6306 834.449 62.6576 834.268 62.6563Z" fill="#FFDB45"/>
<path d="M842.096 51.0576C841.863 51.0576 841.634 51.0031 841.44 50.9009C841.246 50.7988 841.095 50.6536 841.006 50.4837C840.917 50.3138 840.893 50.1269 840.939 49.9465C840.984 49.7662 841.097 49.6006 841.262 49.4705C841.427 49.3405 841.637 49.252 841.866 49.2161C842.095 49.1802 842.332 49.1986 842.547 49.269C842.763 49.3394 842.947 49.4585 843.077 49.6114C843.207 49.7643 843.276 49.944 843.276 50.1279C843.276 50.3745 843.152 50.6109 842.93 50.7853C842.709 50.9596 842.409 51.0576 842.096 51.0576Z" fill="#FFDB45"/>
<path d="M848.718 38.9687C849.251 38.9687 849.682 38.6285 849.682 38.209C849.682 37.7894 849.251 37.4492 848.718 37.4492C848.186 37.4492 847.754 37.7894 847.754 38.209C847.754 38.6285 848.186 38.9687 848.718 38.9687Z" fill="#FFDB45"/>
<path d="M854.06 26.4998C853.906 26.5017 853.756 26.4677 853.627 26.4019C853.498 26.3361 853.397 26.2416 853.336 26.1303C853.276 26.0191 853.258 25.8962 853.287 25.7773C853.315 25.6583 853.388 25.5487 853.496 25.4625C853.603 25.3762 853.741 25.3171 853.892 25.2927C854.042 25.2684 854.198 25.2799 854.341 25.3257C854.483 25.3716 854.604 25.4497 854.69 25.5502C854.776 25.6507 854.821 25.7689 854.821 25.89C854.821 26.05 854.742 26.2036 854.599 26.3177C854.457 26.4317 854.263 26.4971 854.06 26.4998Z" fill="#FFDB45"/>
<path d="M858.082 13.711C857.936 13.711 857.796 13.6661 857.691 13.5857C857.587 13.5054 857.527 13.3961 857.523 13.2812C857.523 13.1645 857.582 13.0526 857.687 12.9701C857.792 12.8876 857.934 12.8413 858.082 12.8413C858.228 12.8439 858.366 12.8914 858.468 12.9736C858.57 13.0558 858.627 13.1662 858.627 13.2812C858.627 13.3952 858.57 13.5045 858.467 13.5851C858.365 13.6657 858.226 13.711 858.082 13.711Z" fill="#FFDB45"/>
<path d="M860.72 0.652741C860.684 0.652773 860.648 0.64703 860.615 0.635861C860.582 0.624692 860.552 0.608329 860.527 0.587764C860.502 0.5672 860.483 0.542862 860.47 0.516227C860.457 0.489593 860.452 0.461216 860.453 0.432819C860.453 0.405251 860.46 0.377953 860.474 0.352484C860.487 0.327015 860.507 0.303873 860.531 0.28438C860.556 0.264886 860.586 0.249423 860.618 0.238873C860.65 0.228324 860.685 0.222894 860.72 0.222894C860.756 0.221541 860.792 0.225968 860.826 0.23591C860.86 0.245852 860.89 0.261101 860.917 0.28073C860.943 0.30036 860.963 0.323963 860.978 0.350107C860.992 0.37625 860.999 0.404389 860.999 0.432819C860.999 0.491146 860.97 0.547084 860.917 0.588328C860.865 0.629571 860.794 0.652741 860.72 0.652741Z" fill="#FFDB45"/>
</g>
<defs>
<clipPath id="clip0_400_320">
<rect width="861" height="281.073" fill="white" transform="translate(0 0.222656)"/>
</clipPath>
</defs>
</svg>
