<svg width="161" height="159" viewBox="0 0 161 159" fill="none" xmlns="http://www.w3.org/2000/svg">
<g clip-path="url(#clip0_530_177)">
<path d="M161.004 0.0512224C161.004 0.0795117 160.947 0.102445 160.878 0.102445C160.808 0.102445 160.752 0.0795117 160.752 0.0512224C160.752 0.022933 160.808 1.44754e-09 160.878 3.23314e-09C160.947 5.01875e-09 161.004 0.022933 161.004 0.0512224Z" fill="#FFDB45"/>
<path d="M153.723 0.41032C153.723 0.390394 153.708 0.370915 153.681 0.354347C153.654 0.337778 153.616 0.324865 153.571 0.31724C153.526 0.309614 153.476 0.307619 153.429 0.311506C153.381 0.315394 153.337 0.324989 153.303 0.339079C153.268 0.35317 153.245 0.371121 153.235 0.390665C153.226 0.410209 153.231 0.430466 153.249 0.448876C153.268 0.467285 153.299 0.483021 153.34 0.494091C153.38 0.505162 153.428 0.511071 153.477 0.511071C153.509 0.511071 153.541 0.508465 153.571 0.503401C153.601 0.498338 153.628 0.490917 153.651 0.481561C153.674 0.472206 153.692 0.461099 153.704 0.448876C153.717 0.436652 153.723 0.423551 153.723 0.41032Z" fill="#FFDB45"/>
<path d="M146.437 0.829546C146.437 0.907187 146.283 0.970128 146.094 0.970128C145.904 0.970128 145.75 0.907187 145.75 0.829546C145.75 0.751905 145.904 0.688965 146.094 0.688965C146.283 0.688965 146.437 0.751905 146.437 0.829546Z" fill="#FFDB45"/>
<path d="M139.171 1.30502C139.171 1.2698 139.146 1.23538 139.098 1.20609C139.05 1.17681 138.982 1.15399 138.902 1.14051C138.823 1.12703 138.735 1.1235 138.651 1.13037C138.567 1.13725 138.489 1.15421 138.428 1.17911C138.367 1.20401 138.326 1.23574 138.309 1.27028C138.292 1.30483 138.301 1.34063 138.334 1.37317C138.367 1.40571 138.423 1.43352 138.494 1.45308C138.566 1.47265 138.65 1.48309 138.736 1.48309C138.851 1.48309 138.962 1.46433 139.044 1.43094C139.125 1.39754 139.171 1.35225 139.171 1.30502Z" fill="#FFDB45"/>
<path d="M131.921 1.83909C131.921 1.95814 131.685 2.05465 131.394 2.05465C131.103 2.05465 130.867 1.95814 130.867 1.83909C130.867 1.72004 131.103 1.62354 131.394 1.62354C131.685 1.62354 131.921 1.72004 131.921 1.83909Z" fill="#FFDB45"/>
<path d="M124.709 2.44152C124.709 2.39148 124.673 2.34255 124.605 2.30094C124.537 2.25932 124.441 2.22689 124.328 2.20774C124.215 2.18859 124.09 2.18358 123.97 2.19334C123.85 2.2031 123.74 2.2272 123.654 2.26259C123.567 2.29798 123.508 2.34307 123.485 2.39216C123.461 2.44124 123.473 2.49212 123.52 2.53836C123.567 2.5846 123.646 2.62412 123.747 2.65192C123.849 2.67973 123.969 2.69457 124.091 2.69457C124.255 2.69396 124.411 2.6671 124.527 2.61978C124.642 2.57246 124.708 2.50845 124.709 2.44152Z" fill="#FFDB45"/>
<path d="M117.545 3.18409C117.545 3.14594 117.527 3.10816 117.491 3.07291C117.455 3.03766 117.403 3.00563 117.337 2.97865C117.271 2.95167 117.193 2.93027 117.107 2.91567C117.021 2.90107 116.928 2.89355 116.835 2.89355C116.742 2.89355 116.649 2.90107 116.563 2.91567C116.477 2.93027 116.399 2.95167 116.333 2.97865C116.267 3.00563 116.215 3.03766 116.179 3.07291C116.143 3.10816 116.125 3.14594 116.125 3.18409C116.125 3.26114 116.2 3.33504 116.333 3.38953C116.466 3.44402 116.647 3.47462 116.835 3.47462C117.023 3.47463 117.204 3.44402 117.337 3.38953C117.47 3.33504 117.545 3.26114 117.545 3.18409Z" fill="#FFDB45"/>
<path d="M110.611 4.16836C110.611 4.34952 110.252 4.49638 109.809 4.49638C109.367 4.49638 109.008 4.34952 109.008 4.16836C109.008 3.98719 109.367 3.84033 109.809 3.84033C110.252 3.84033 110.611 3.98719 110.611 4.16836Z" fill="#FFDB45"/>
<path d="M103.972 5.4825C103.976 5.41029 103.926 5.3393 103.831 5.27861C103.735 5.21792 103.597 5.17028 103.435 5.14178C103.273 5.11328 103.094 5.10521 102.92 5.11861C102.747 5.13201 102.587 5.16627 102.461 5.217C102.336 5.26774 102.25 5.33265 102.215 5.40344C102.18 5.47422 102.197 5.54768 102.265 5.61441C102.332 5.68114 102.447 5.73811 102.594 5.77805C102.741 5.818 102.914 5.83909 103.09 5.83864C103.322 5.83864 103.545 5.80127 103.71 5.73461C103.875 5.66796 103.969 5.57738 103.972 5.4825Z" fill="#FFDB45"/>
<path d="M97.901 7.20475C97.901 7.12823 97.8458 7.05341 97.7423 6.98967C97.6388 6.92593 97.4917 6.87609 97.3194 6.8464C97.147 6.8167 96.9571 6.80847 96.7733 6.82273C96.5896 6.837 96.4203 6.87312 96.2865 6.92658C96.1527 6.98004 96.0604 7.04847 96.0211 7.12329C95.9819 7.19811 95.9975 7.276 96.066 7.34721C96.1344 7.41842 96.2527 7.47979 96.4059 7.52363C96.5592 7.56748 96.7407 7.59185 96.9276 7.59369C97.0541 7.59462 97.1799 7.58526 97.2975 7.56616C97.4151 7.54706 97.5223 7.5186 97.6129 7.48242C97.7034 7.44624 97.7755 7.40307 97.825 7.3554C97.8744 7.30774 97.9003 7.25653 97.901 7.20475Z" fill="#FFDB45"/>
<path d="M92.6224 9.3276C92.6236 9.24491 92.5646 9.16396 92.453 9.09501C92.3415 9.02607 92.1824 8.97225 91.9959 8.9404C91.8094 8.90854 91.604 8.90009 91.4058 8.9161C91.2075 8.93212 91.0254 8.97189 90.8825 9.03036C90.7396 9.08882 90.6424 9.16335 90.6033 9.24447C90.5641 9.32559 90.5848 9.40964 90.6627 9.48594C90.7405 9.56224 90.872 9.62735 91.0405 9.673C91.209 9.71865 91.4069 9.74278 91.6089 9.74231C91.8773 9.7417 92.1342 9.69781 92.3239 9.62017C92.5137 9.54253 92.6209 9.4374 92.6224 9.3276Z" fill="#FFDB45"/>
<path d="M88.2328 11.769C88.2328 11.6814 88.1693 11.5958 88.0504 11.523C87.9315 11.4502 87.7625 11.3934 87.5647 11.3599C87.367 11.3264 87.1494 11.3176 86.9394 11.3347C86.7295 11.3518 86.5367 11.3939 86.3853 11.4559C86.234 11.5178 86.1309 11.5967 86.0892 11.6826C86.0474 11.7685 86.0688 11.8576 86.1507 11.9385C86.2327 12.0194 86.3714 12.0885 86.5493 12.1372C86.7273 12.1859 86.9365 12.2118 87.1506 12.2118C87.2929 12.2121 87.434 12.2009 87.5656 12.1788C87.6973 12.1566 87.8169 12.124 87.9175 12.0828C88.0182 12.0416 88.0978 11.9927 88.152 11.9388C88.2061 11.885 88.2336 11.8272 88.2328 11.769Z" fill="#FFDB45"/>
<path d="M84.7224 14.4421C84.7224 14.7022 84.207 14.9131 83.5712 14.9131C82.9353 14.9131 82.4199 14.7022 82.4199 14.4421C82.4199 14.182 82.9353 13.9712 83.5712 13.9712C84.207 13.9712 84.7224 14.182 84.7224 14.4421Z" fill="#FFDB45"/>
<path d="M81.9739 17.266C81.9739 17.5377 81.4354 17.758 80.7711 17.758C80.1069 17.758 79.5684 17.5377 79.5684 17.266C79.5684 16.9942 80.1069 16.7739 80.7711 16.7739C81.4354 16.7739 81.9739 16.9942 81.9739 17.266Z" fill="#FFDB45"/>
<path d="M79.87 20.183C79.87 20.4664 79.3084 20.6962 78.6156 20.6962C77.9229 20.6962 77.3613 20.4664 77.3613 20.183C77.3613 19.8997 77.9229 19.6699 78.6156 19.6699C79.3084 19.6699 79.87 19.8997 79.87 20.183Z" fill="#FFDB45"/>
<path d="M78.3034 23.1608C78.3034 23.4545 77.7213 23.6926 77.0033 23.6926C76.2852 23.6926 75.7031 23.4545 75.7031 23.1608C75.7031 22.867 76.2852 22.6289 77.0033 22.6289C77.7213 22.6289 78.3034 22.867 78.3034 23.1608Z" fill="#FFDB45"/>
<path d="M77.1529 26.1698C77.1529 26.4738 76.5503 26.7204 75.8069 26.7204C75.0635 26.7204 74.4609 26.4738 74.4609 26.1698C74.4609 25.8657 75.0635 25.6191 75.8069 25.6191C76.5503 25.6191 77.1529 25.8657 77.1529 26.1698Z" fill="#FFDB45"/>
<path d="M76.3067 29.1962C76.3067 29.083 76.2246 28.9724 76.0708 28.8783C75.917 28.7843 75.6984 28.711 75.4427 28.6678C75.187 28.6246 74.9057 28.6134 74.6345 28.6357C74.3632 28.6579 74.1142 28.7126 73.919 28.7928C73.7238 28.873 73.5912 28.9751 73.5379 29.0861C73.4846 29.1972 73.5131 29.3122 73.6198 29.4166C73.7264 29.521 73.9064 29.6102 74.137 29.6727C74.3676 29.7352 74.6383 29.7684 74.915 29.7679C75.0982 29.7679 75.2797 29.7531 75.4489 29.7243C75.6181 29.6956 75.7718 29.6534 75.9011 29.6003C76.0304 29.5472 76.1328 29.4842 76.2024 29.4148C76.2721 29.3455 76.3075 29.2712 76.3067 29.1962Z" fill="#FFDB45"/>
<path d="M75.7363 32.235C75.7363 32.1182 75.6516 32.004 75.493 31.9069C75.3344 31.8098 75.109 31.7342 74.8453 31.6895C74.5815 31.6448 74.2913 31.6331 74.0114 31.6559C73.7314 31.6787 73.4742 31.7349 73.2723 31.8175C73.0705 31.9 72.933 32.0052 72.8773 32.1198C72.8217 32.2343 72.8502 32.353 72.9595 32.4609C73.0687 32.5688 73.2537 32.661 73.4911 32.7259C73.7284 32.7908 74.0075 32.8254 74.2929 32.8254C74.6757 32.8254 75.0428 32.7632 75.3135 32.6525C75.5842 32.5418 75.7363 32.3916 75.7363 32.235Z" fill="#FFDB45"/>
<path d="M75.2857 35.277C75.2857 35.6095 74.6267 35.8791 73.8138 35.8791C73.0008 35.8791 72.3418 35.6095 72.3418 35.277C72.3418 34.9444 73.0008 34.6748 73.8138 34.6748C74.6267 34.6748 75.2857 34.9444 75.2857 35.277Z" fill="#FFDB45"/>
<path d="M74.8818 38.3203C74.8818 38.1984 74.7935 38.0793 74.6279 37.978C74.4624 37.8766 74.2272 37.7976 73.9519 37.751C73.6767 37.7044 73.3738 37.6922 73.0816 37.7159C72.7894 37.7397 72.521 37.7984 72.3103 37.8846C72.0997 37.9708 71.9562 38.0806 71.8981 38.2001C71.84 38.3196 71.8698 38.4435 71.9838 38.5561C72.0978 38.6687 72.2909 38.765 72.5386 38.8327C72.7863 38.9004 73.0776 38.9365 73.3755 38.9365C73.5735 38.9368 73.7697 38.9211 73.9528 38.8903C74.1359 38.8594 74.3023 38.814 74.4423 38.7567C74.5823 38.6995 74.6933 38.6314 74.7687 38.5565C74.8441 38.4816 74.8826 38.4013 74.8818 38.3203Z" fill="#FFDB45"/>
<path d="M74.5328 41.3661C74.5339 41.2417 74.4447 41.12 74.2765 41.0164C74.1083 40.9127 73.8686 40.8319 73.5879 40.7841C73.3072 40.7363 72.9981 40.7236 72.6998 40.7478C72.4015 40.7719 72.1275 40.8318 71.9125 40.9198C71.6975 41.0077 71.5512 41.1198 71.4921 41.2418C71.4331 41.3639 71.4639 41.4903 71.5808 41.6052C71.6977 41.72 71.8953 41.818 72.1486 41.8868C72.4019 41.9557 72.6995 41.9922 73.0036 41.9917C73.4087 41.9911 73.7968 41.925 74.0832 41.8078C74.3697 41.6906 74.5313 41.5318 74.5328 41.3661Z" fill="#FFDB45"/>
<path d="M74.2483 44.4121C74.2483 44.2855 74.1565 44.1617 73.9844 44.0565C73.8123 43.9513 73.5678 43.8693 73.2817 43.8209C72.9957 43.7726 72.681 43.7601 72.3775 43.7849C72.0741 43.8098 71.7955 43.8709 71.577 43.9606C71.3586 44.0503 71.2101 44.1645 71.1504 44.2888C71.0908 44.413 71.1225 44.5417 71.2418 44.6585C71.361 44.7753 71.5623 44.8751 71.8202 44.9451C72.0781 45.0151 72.3809 45.0522 72.6904 45.0517C72.8955 45.0517 73.0985 45.0352 73.2879 45.003C73.4773 44.9708 73.6493 44.9237 73.794 44.8643C73.9388 44.8048 74.0534 44.7343 74.1314 44.6567C74.2093 44.5791 74.2491 44.496 74.2483 44.4121Z" fill="#FFDB45"/>
<path d="M74.0282 47.4609C74.0282 47.8207 73.3154 48.1123 72.436 48.1123C71.5566 48.1123 70.8437 47.8207 70.8437 47.4609C70.8437 47.1012 71.5566 46.8096 72.436 46.8096C73.3154 46.8096 74.0282 47.1012 74.0282 47.4609Z" fill="#FFDB45"/>
<path d="M73.8648 50.5058C73.8648 50.3747 73.7697 50.2465 73.5916 50.1375C73.4135 50.0284 73.1604 49.9434 72.8642 49.8932C72.568 49.8431 72.2421 49.8299 71.9277 49.8555C71.6133 49.8811 71.3245 49.9443 71.0978 50.037C70.8711 50.1297 70.7167 50.2479 70.6542 50.3765C70.5917 50.5051 70.6237 50.6384 70.7464 50.7596C70.8691 50.8808 71.0769 50.9843 71.3434 51.0572C71.61 51.13 71.9233 51.1689 72.2439 51.1689C72.6738 51.1689 73.0861 51.0991 73.3901 50.9747C73.694 50.8504 73.8648 50.6817 73.8648 50.5058Z" fill="#FFDB45"/>
<path d="M73.76 53.5547C73.76 53.4211 73.6631 53.2906 73.4816 53.1795C73.3001 53.0685 73.0421 52.982 72.7404 52.931C72.4386 52.88 72.1067 52.8668 71.7865 52.893C71.4664 52.9192 71.1725 52.9837 70.942 53.0784C70.7116 53.173 70.5549 53.2934 70.4919 53.4245C70.4289 53.5555 70.4624 53.6913 70.5881 53.8145C70.7139 53.9378 70.9262 54.043 71.1982 54.1169C71.4702 54.1907 71.7897 54.2299 72.1162 54.2295C72.5527 54.2288 72.9708 54.1575 73.2789 54.031C73.587 53.9045 73.76 53.7332 73.76 53.5547Z" fill="#FFDB45"/>
<path d="M73.6992 56.6054C73.6992 56.4714 73.6021 56.3405 73.4202 56.2292C73.2383 56.1178 72.9798 56.031 72.6774 55.9798C72.3749 55.9285 72.0421 55.9151 71.721 55.9412C71.3999 55.9674 71.105 56.0319 70.8735 56.1266C70.642 56.2213 70.4843 56.3419 70.4205 56.4733C70.3566 56.6046 70.3894 56.7408 70.5147 56.8645C70.64 56.9882 70.8521 57.094 71.1243 57.1684C71.3965 57.2428 71.7165 57.2825 72.0439 57.2825C72.4829 57.2825 72.9039 57.2112 73.2144 57.0842C73.5248 56.9572 73.6992 56.7849 73.6992 56.6054Z" fill="#FFDB45"/>
<path d="M73.7065 59.6535C73.7065 60.0301 72.9602 60.3353 72.0397 60.3353C71.1193 60.3353 70.373 60.0301 70.373 59.6535C70.373 59.2769 71.1193 58.9717 72.0397 58.9717C72.9602 58.9717 73.7065 59.2769 73.7065 59.6535Z" fill="#FFDB45"/>
<path d="M73.7667 62.7013C73.7667 62.5659 73.6686 62.4337 73.4849 62.3212C73.3011 62.2086 73.0399 62.121 72.7343 62.0692C72.4287 62.0174 72.0925 62.0038 71.768 62.0302C71.4436 62.0566 71.1456 62.1218 70.9117 62.2175C70.6778 62.3132 70.5185 62.4351 70.454 62.5678C70.3895 62.7005 70.4226 62.8381 70.5492 62.9631C70.6758 63.0881 70.8901 63.1949 71.1651 63.2701C71.4402 63.3453 71.7635 63.3854 72.0943 63.3854C72.5379 63.3854 72.9633 63.3133 73.2769 63.185C73.5905 63.0567 73.7667 62.8827 73.7667 62.7013Z" fill="#FFDB45"/>
<path d="M73.8932 65.7494C73.8932 65.6132 73.7944 65.48 73.6094 65.3667C73.4243 65.2534 73.1614 65.1651 72.8537 65.113C72.546 65.0608 72.2074 65.0472 71.8808 65.0738C71.5541 65.1004 71.2541 65.166 71.0186 65.2623C70.7831 65.3586 70.6227 65.4814 70.5577 65.615C70.4928 65.7486 70.5261 65.8871 70.6536 66.013C70.781 66.1389 70.9968 66.2465 71.2738 66.3222C71.5507 66.3978 71.8762 66.4382 72.2093 66.4382C72.6559 66.4382 73.0842 66.3657 73.4 66.2365C73.7158 66.1073 73.8932 65.9321 73.8932 65.7494Z" fill="#FFDB45"/>
<path d="M74.0791 68.7981C74.0791 68.6591 73.9783 68.5232 73.7895 68.4076C73.6007 68.292 73.3323 68.2019 73.0184 68.1487C72.7044 68.0955 72.3589 68.0816 72.0256 68.1087C71.6923 68.1358 71.3861 68.2028 71.1458 68.3011C70.9055 68.3994 70.7419 68.5246 70.6756 68.661C70.6093 68.7973 70.6433 68.9387 70.7734 69.0671C70.9034 69.1956 71.1236 69.3053 71.4062 69.3826C71.6888 69.4598 72.021 69.501 72.3608 69.501C72.8165 69.501 73.2536 69.427 73.5758 69.2952C73.898 69.1633 74.0791 68.9845 74.0791 68.7981Z" fill="#FFDB45"/>
<path d="M74.3252 71.847C74.3252 71.7079 74.2244 71.572 74.0356 71.4564C73.8468 71.3408 73.5784 71.2508 73.2645 71.1975C72.9505 71.1443 72.605 71.1304 72.2717 71.1575C71.9384 71.1847 71.6322 71.2516 71.3919 71.3499C71.1516 71.4482 70.988 71.5735 70.9217 71.7098C70.8554 71.8462 70.8894 71.9875 71.0195 72.1159C71.1495 72.2444 71.3698 72.3542 71.6523 72.4314C71.9349 72.5086 72.2671 72.5499 72.6069 72.5499C73.0626 72.5499 73.4997 72.4758 73.8219 72.344C74.1441 72.2122 74.3252 72.0334 74.3252 71.847Z" fill="#FFDB45"/>
<path d="M74.6321 74.8925C74.6321 75.2794 73.8654 75.593 72.9196 75.593C71.9738 75.593 71.207 75.2794 71.207 74.8925C71.207 74.5056 71.9738 74.1919 72.9196 74.1919C73.8654 74.1919 74.6321 74.5056 74.6321 74.8925Z" fill="#FFDB45"/>
<path d="M74.9971 77.9383C74.9971 77.7992 74.8963 77.6633 74.7075 77.5477C74.5187 77.4322 74.2503 77.3421 73.9363 77.2889C73.6224 77.2357 73.2769 77.2217 72.9436 77.2489C72.6103 77.276 72.3041 77.3429 72.0638 77.4412C71.8235 77.5395 71.6599 77.6648 71.5936 77.8011C71.5273 77.9375 71.5613 78.0788 71.6913 78.2072C71.8214 78.3357 72.0416 78.4455 72.3242 78.5227C72.6068 78.5999 72.939 78.6412 73.2788 78.6412C73.7345 78.6412 74.1715 78.5671 74.4938 78.4353C74.816 78.3035 74.9971 78.1247 74.9971 77.9383Z" fill="#FFDB45"/>
<path d="M75.4092 80.9822C75.4092 80.8432 75.3084 80.7073 75.1196 80.5917C74.9308 80.4761 74.6624 80.386 74.3485 80.3328C74.0345 80.2796 73.689 80.2657 73.3557 80.2928C73.0224 80.3199 72.7162 80.3869 72.4759 80.4852C72.2356 80.5835 72.072 80.7087 72.0057 80.8451C71.9394 80.9814 71.9734 81.1228 72.1035 81.2512C72.2335 81.3796 72.4537 81.4894 72.7363 81.5667C73.0189 81.6439 73.3511 81.6851 73.6909 81.6851C74.1466 81.6851 74.5837 81.6111 74.9059 81.4792C75.2281 81.3474 75.4092 81.1686 75.4092 80.9822Z" fill="#FFDB45"/>
<path d="M75.8855 84.0257C75.8912 83.8862 75.7952 83.7491 75.6099 83.632C75.4246 83.5149 75.1583 83.423 74.8449 83.368C74.5314 83.313 74.1851 83.2974 73.8499 83.3231C73.5147 83.3489 73.2059 83.4149 72.9627 83.5127C72.7196 83.6106 72.553 83.7358 72.4844 83.8724C72.4157 84.0091 72.4481 84.151 72.5772 84.2802C72.7064 84.4093 72.9266 84.5198 73.2097 84.5975C73.4929 84.6753 73.8262 84.7168 74.1672 84.7168C74.618 84.7169 75.0508 84.6444 75.3722 84.5151C75.6936 84.3858 75.878 84.21 75.8855 84.0257Z" fill="#FFDB45"/>
<path d="M76.4144 87.0642C76.4144 86.9274 76.3151 86.7937 76.1292 86.68C75.9433 86.5663 75.6791 86.4777 75.37 86.4254C75.061 86.3732 74.7209 86.3596 74.393 86.3865C74.0651 86.4134 73.7641 86.4794 73.528 86.5763C73.2919 86.6732 73.1315 86.7966 73.0669 86.9308C73.0024 87.0651 73.0367 87.2041 73.1654 87.3304C73.2942 87.4566 73.5116 87.5644 73.7902 87.6401C74.0688 87.7158 74.3961 87.7559 74.7305 87.7554C74.9521 87.7554 75.1715 87.7375 75.3762 87.7028C75.5809 87.668 75.7668 87.6171 75.9232 87.5528C76.0797 87.4886 76.2036 87.4124 76.2879 87.3286C76.3721 87.2447 76.4151 87.1549 76.4144 87.0642Z" fill="#FFDB45"/>
<path d="M77.0048 90.1064C77.0048 90.4856 76.2534 90.7929 75.3266 90.7929C74.3998 90.7929 73.6484 90.4856 73.6484 90.1064C73.6484 89.7273 74.3998 89.4199 75.3266 89.4199C76.2534 89.4199 77.0048 89.7273 77.0048 90.1064Z" fill="#FFDB45"/>
<path d="M77.6049 93.1447C77.6049 93.5213 76.8587 93.8265 75.9382 93.8265C75.0177 93.8265 74.2715 93.5213 74.2715 93.1447C74.2715 92.7682 75.0177 92.4629 75.9382 92.4629C76.8587 92.4629 77.6049 92.7682 77.6049 93.1447Z" fill="#FFDB45"/>
<path d="M78.1992 96.1811C78.198 96.0473 78.1 95.9166 77.9174 95.8056C77.7349 95.6945 77.4759 95.6081 77.1734 95.5572C76.8708 95.5063 76.5382 95.4933 76.2175 95.5196C75.8968 95.546 75.6024 95.6107 75.3715 95.7055C75.1405 95.8003 74.9835 95.921 74.9201 96.0522C74.8567 96.1835 74.8898 96.3196 75.0152 96.4431C75.1407 96.5667 75.3528 96.6724 75.6249 96.7467C75.897 96.821 76.2168 96.8606 76.5439 96.8606C76.7618 96.8606 76.9775 96.843 77.1787 96.8089C77.3799 96.7747 77.5626 96.7246 77.7164 96.6615C77.8702 96.5983 77.992 96.5234 78.0748 96.441C78.1577 96.3586 78.1999 96.2703 78.1992 96.1811Z" fill="#FFDB45"/>
<path d="M78.7736 99.2225C78.7748 99.089 78.679 98.9583 78.4984 98.847C78.3179 98.7357 78.0606 98.6489 77.7593 98.5975C77.458 98.546 77.1262 98.5323 76.8058 98.5581C76.4855 98.5839 76.191 98.6479 75.9598 98.7422C75.7285 98.8365 75.5708 98.9567 75.5067 99.0877C75.4426 99.2187 75.4749 99.3545 75.5996 99.4779C75.7243 99.6013 75.9357 99.7069 76.2071 99.7811C76.4785 99.8554 76.7976 99.895 77.1241 99.895C77.5606 99.895 77.9793 99.8242 78.2885 99.6982C78.5977 99.5721 78.7721 99.4011 78.7736 99.2225Z" fill="#FFDB45"/>
<path d="M79.2691 102.264C79.2691 102.63 78.5434 102.927 77.6482 102.927C76.753 102.927 76.0273 102.63 76.0273 102.264C76.0273 101.898 76.753 101.601 77.6482 101.601C78.5434 101.601 79.2691 101.898 79.2691 102.264Z" fill="#FFDB45"/>
<path d="M79.6884 105.307C79.6884 105.178 79.595 105.052 79.4201 104.945C79.2451 104.838 78.9964 104.755 78.7055 104.705C78.4145 104.656 78.0944 104.643 77.7855 104.668C77.4767 104.693 77.1929 104.755 76.9703 104.847C76.7476 104.938 76.5959 105.054 76.5345 105.18C76.4731 105.306 76.5046 105.437 76.6251 105.556C76.7456 105.675 76.9497 105.777 77.2115 105.849C77.4734 105.92 77.7812 105.958 78.0961 105.958C78.5184 105.958 78.9234 105.89 79.222 105.768C79.5206 105.646 79.6884 105.48 79.6884 105.307Z" fill="#FFDB45"/>
<path d="M80.0003 108.353C80.0003 108.227 79.9086 108.103 79.7368 107.998C79.5649 107.892 79.3207 107.81 79.035 107.762C78.7493 107.714 78.4349 107.701 78.1316 107.726C77.8283 107.75 77.5497 107.811 77.331 107.901C77.1123 107.99 76.9634 108.104 76.9031 108.228C76.8428 108.352 76.8737 108.481 76.9921 108.598C77.1104 108.715 77.3108 108.815 77.568 108.885C77.8251 108.955 78.1274 108.993 78.4367 108.993C78.8509 108.992 79.2477 108.924 79.5406 108.805C79.8335 108.685 79.9988 108.522 80.0003 108.353Z" fill="#FFDB45"/>
<path d="M80.1774 111.399C80.1774 111.275 80.0873 111.153 79.9187 111.05C79.75 110.947 79.5103 110.866 79.2298 110.819C78.9493 110.771 78.6407 110.759 78.3429 110.783C78.0452 110.807 77.7717 110.867 77.557 110.955C77.3423 111.043 77.1961 111.155 77.1369 111.276C77.0777 111.398 77.1081 111.524 77.2243 111.639C77.3404 111.754 77.5372 111.852 77.7896 111.921C78.042 111.99 78.3388 112.027 78.6424 112.027C79.0495 112.027 79.4399 111.961 79.7278 111.843C80.0156 111.725 80.1774 111.565 80.1774 111.399Z" fill="#FFDB45"/>
<path d="M80.196 114.448C80.1971 114.325 80.1094 114.205 79.9439 114.103C79.7785 114.001 79.5427 113.922 79.2665 113.874C78.9904 113.827 78.6861 113.815 78.3925 113.838C78.0988 113.862 77.8288 113.921 77.6168 114.007C77.4047 114.093 77.2602 114.204 77.2013 114.324C77.1425 114.444 77.1722 114.568 77.2864 114.681C77.4007 114.795 77.5945 114.891 77.8433 114.959C78.0921 115.027 78.3846 115.064 78.6839 115.064C79.084 115.064 79.4677 114.999 79.7511 114.883C80.0345 114.768 80.1945 114.611 80.196 114.448Z" fill="#FFDB45"/>
<path d="M80.0293 117.496C80.0305 117.376 79.9444 117.258 79.7821 117.158C79.6198 117.058 79.3885 116.98 79.1176 116.934C78.8466 116.887 78.5482 116.875 78.26 116.898C77.9719 116.921 77.707 116.979 77.499 117.064C77.291 117.148 77.1491 117.257 77.0914 117.374C77.0337 117.492 77.0628 117.614 77.1749 117.725C77.287 117.836 77.4771 117.931 77.7212 117.998C77.9652 118.065 78.2523 118.1 78.5459 118.1C78.9383 118.1 79.3148 118.037 79.5928 117.923C79.8709 117.81 80.0278 117.656 80.0293 117.496Z" fill="#FFDB45"/>
<path d="M79.652 120.542C79.652 120.424 79.567 120.31 79.4078 120.212C79.2486 120.115 79.0223 120.039 78.7575 119.994C78.4927 119.949 78.2014 119.937 77.9203 119.96C77.6392 119.983 77.381 120.039 77.1783 120.122C76.9757 120.205 76.8377 120.311 76.7818 120.426C76.7258 120.541 76.7545 120.66 76.8642 120.768C76.9739 120.877 77.1596 120.969 77.3979 121.034C77.6362 121.1 77.9164 121.134 78.203 121.134C78.5873 121.134 78.9559 121.072 79.2276 120.961C79.4994 120.85 79.652 120.699 79.652 120.542Z" fill="#FFDB45"/>
<path d="M79.0193 123.583C79.0205 123.469 78.939 123.358 78.7853 123.263C78.6315 123.168 78.4124 123.094 78.1558 123.05C77.8991 123.007 77.6165 122.995 77.3438 123.017C77.071 123.039 76.8205 123.094 76.6239 123.174C76.4273 123.255 76.2935 123.357 76.2396 123.469C76.1856 123.581 76.2139 123.696 76.3208 123.801C76.4277 123.906 76.6085 123.996 76.8401 124.059C77.0717 124.122 77.3438 124.155 77.6218 124.154C77.992 124.154 78.3466 124.093 78.6084 123.986C78.8701 123.879 79.0178 123.734 79.0193 123.583Z" fill="#FFDB45"/>
<path d="M78.1074 126.61C78.1085 126.5 78.0299 126.392 77.8814 126.301C77.733 126.209 77.5214 126.138 77.2734 126.095C77.0255 126.053 76.7524 126.041 76.4887 126.063C76.225 126.084 75.9826 126.136 75.7922 126.214C75.6018 126.292 75.4719 126.391 75.4191 126.498C75.3662 126.606 75.3928 126.718 75.4954 126.819C75.5979 126.921 75.7719 127.008 75.9953 127.069C76.2186 127.13 76.4813 127.163 76.75 127.163C77.109 127.163 77.4534 127.105 77.7078 127.001C77.9622 126.897 78.1059 126.757 78.1074 126.61Z" fill="#FFDB45"/>
<path d="M76.85 129.619C76.85 129.513 76.7734 129.41 76.6299 129.322C76.4865 129.234 76.2825 129.166 76.0439 129.125C75.8053 129.085 75.5427 129.074 75.2894 129.095C75.0361 129.115 74.8034 129.166 74.6208 129.241C74.4381 129.316 74.3138 129.411 74.2634 129.514C74.213 129.618 74.2388 129.726 74.3377 129.823C74.4365 129.921 74.6039 130.004 74.8186 130.063C75.0334 130.122 75.2859 130.153 75.5442 130.153C75.8905 130.153 76.2226 130.097 76.4675 129.996C76.7124 129.896 76.85 129.76 76.85 129.619Z" fill="#FFDB45"/>
<path d="M75.1646 132.597C75.1646 132.494 75.0906 132.395 74.9519 132.31C74.8132 132.225 74.616 132.159 74.3854 132.12C74.1549 132.081 73.9012 132.071 73.6566 132.091C73.4121 132.111 73.1876 132.161 73.0116 132.233C72.8356 132.305 72.716 132.397 72.668 132.497C72.6201 132.598 72.6458 132.701 72.7421 132.795C72.8383 132.89 73.0007 132.97 73.2087 133.026C73.4167 133.083 73.6608 133.112 73.9103 133.112C74.0755 133.112 74.2391 133.099 74.3916 133.073C74.5442 133.047 74.6827 133.009 74.7993 132.961C74.9158 132.913 75.0081 132.856 75.0708 132.794C75.1335 132.731 75.1654 132.664 75.1646 132.597Z" fill="#FFDB45"/>
<path d="M73.0456 135.521C73.0468 135.422 72.9765 135.326 72.8438 135.244C72.7111 135.162 72.5218 135.098 72.3001 135.06C72.0783 135.022 71.834 135.012 71.598 135.031C71.3621 135.05 71.1452 135.097 70.9749 135.166C70.8045 135.236 70.6883 135.324 70.6409 135.42C70.5936 135.517 70.6173 135.617 70.7091 135.708C70.8008 135.799 70.9564 135.876 71.1562 135.931C71.356 135.986 71.591 136.015 71.8314 136.015C71.9906 136.015 72.1484 136.003 72.2956 135.978C72.4429 135.953 72.5768 135.917 72.6896 135.871C72.8025 135.825 72.892 135.77 72.9531 135.71C73.0142 135.65 73.0456 135.586 73.0456 135.521Z" fill="#FFDB45"/>
<path d="M70.3594 138.372C70.3594 138.28 70.2922 138.189 70.1663 138.112C70.0404 138.035 69.8615 137.975 69.6522 137.939C69.4429 137.904 69.2126 137.895 68.9904 137.913C68.7682 137.931 68.5641 137.976 68.4039 138.041C68.2437 138.107 68.1346 138.19 68.0904 138.281C68.0462 138.372 68.0689 138.466 68.1556 138.552C68.2423 138.637 68.3891 138.711 68.5775 138.762C68.7658 138.814 68.9873 138.841 69.2139 138.841C69.5177 138.841 69.809 138.792 70.0239 138.704C70.2387 138.616 70.3594 138.497 70.3594 138.372Z" fill="#FFDB45"/>
<path d="M67.0685 141.123C67.0685 141.035 67.0047 140.949 66.8851 140.876C66.7656 140.802 66.5957 140.745 66.3969 140.712C66.1981 140.678 65.9793 140.669 65.7683 140.686C65.5572 140.703 65.3634 140.746 65.2112 140.808C65.0591 140.87 64.9555 140.95 64.9135 141.036C64.8715 141.122 64.8931 141.212 64.9754 141.293C65.0577 141.375 65.1972 141.444 65.3761 141.493C65.555 141.542 65.7653 141.568 65.9805 141.568C66.2691 141.568 66.5458 141.521 66.7498 141.438C66.9538 141.354 67.0685 141.241 67.0685 141.123Z" fill="#FFDB45"/>
<path d="M63.1358 143.732C63.137 143.649 63.0778 143.568 62.9659 143.499C62.854 143.429 62.6943 143.375 62.5071 143.343C62.3199 143.311 62.1136 143.302 61.9145 143.318C61.7153 143.334 61.5321 143.374 61.3882 143.433C61.2443 143.491 61.1461 143.566 61.1061 143.647C61.066 143.729 61.086 143.813 61.1634 143.89C61.2408 143.967 61.3722 144.032 61.5409 144.079C61.7095 144.125 61.9079 144.149 62.1109 144.149C62.3817 144.149 62.6416 144.105 62.8336 144.027C63.0257 143.949 63.1343 143.843 63.1358 143.732Z" fill="#FFDB45"/>
<path d="M58.6488 146.179C58.6488 146.395 58.2207 146.57 57.6926 146.57C57.1645 146.57 56.7363 146.395 56.7363 146.179C56.7363 145.963 57.1645 145.788 57.6926 145.788C58.2207 145.788 58.6488 145.963 58.6488 146.179Z" fill="#FFDB45"/>
<path d="M53.5954 148.448C53.5954 148.376 53.5433 148.306 53.4458 148.246C53.3483 148.186 53.2097 148.14 53.0475 148.112C52.8853 148.085 52.7069 148.077 52.5347 148.091C52.3625 148.105 52.2044 148.14 52.0803 148.191C51.9561 148.242 51.8716 148.306 51.8374 148.377C51.8031 148.447 51.8207 148.52 51.8879 148.587C51.955 148.653 52.0688 148.71 52.2148 148.75C52.3607 148.79 52.5323 148.811 52.7078 148.811C52.8246 148.811 52.9404 148.802 53.0484 148.784C53.1564 148.766 53.2546 148.739 53.3371 148.705C53.4197 148.671 53.485 148.631 53.5294 148.587C53.5737 148.543 53.5961 148.495 53.5954 148.448Z" fill="#FFDB45"/>
<path d="M48.0679 150.523C48.0679 150.458 48.0205 150.394 47.9318 150.34C47.8431 150.285 47.717 150.243 47.5695 150.218C47.4219 150.193 47.2596 150.186 47.103 150.199C46.9464 150.212 46.8025 150.243 46.6896 150.29C46.5767 150.336 46.4998 150.395 46.4686 150.459C46.4375 150.523 46.4535 150.589 46.5146 150.65C46.5757 150.71 46.6792 150.762 46.8119 150.798C46.9447 150.834 47.1008 150.854 47.2605 150.854C47.4746 150.854 47.68 150.819 47.8314 150.757C47.9828 150.695 48.0679 150.611 48.0679 150.523Z" fill="#FFDB45"/>
<path d="M42.0995 152.398C42.0994 152.34 42.0577 152.284 41.9796 152.236C41.9014 152.188 41.7903 152.15 41.6602 152.128C41.5301 152.105 41.3868 152.099 41.2482 152.11C41.1097 152.121 40.9822 152.149 40.8816 152.189C40.7811 152.23 40.712 152.281 40.6831 152.338C40.6543 152.394 40.6668 152.453 40.7192 152.507C40.7716 152.56 40.8616 152.606 40.9778 152.639C41.094 152.672 41.2312 152.69 41.3723 152.691C41.4672 152.691 41.5615 152.684 41.6497 152.67C41.7379 152.655 41.8181 152.634 41.8858 152.607C41.9535 152.579 42.0072 152.547 42.0439 152.511C42.0806 152.475 42.0995 152.437 42.0995 152.398Z" fill="#FFDB45"/>
<path d="M35.7619 154.063C35.7619 154.013 35.7252 153.963 35.6563 153.921C35.5875 153.879 35.4897 153.847 35.3753 153.827C35.2609 153.808 35.1351 153.803 35.0139 153.813C34.8927 153.823 34.7815 153.848 34.6944 153.884C34.6074 153.92 34.5484 153.965 34.525 154.015C34.5015 154.065 34.5147 154.116 34.5628 154.163C34.611 154.209 34.6918 154.249 34.7952 154.277C34.8986 154.305 35.0199 154.319 35.1435 154.319C35.2252 154.319 35.3061 154.312 35.3815 154.299C35.4569 154.287 35.5254 154.268 35.5829 154.244C35.6404 154.22 35.6858 154.192 35.7165 154.161C35.7473 154.13 35.7627 154.097 35.7619 154.063Z" fill="#FFDB45"/>
<path d="M29.1178 155.509C29.1178 155.466 29.0865 155.424 29.028 155.388C28.9695 155.352 28.8863 155.324 28.789 155.308C28.6917 155.291 28.5847 155.287 28.4814 155.295C28.3781 155.304 28.2832 155.324 28.2087 155.355C28.1342 155.385 28.0835 155.424 28.063 155.466C28.0424 155.509 28.053 155.552 28.0933 155.592C28.1336 155.632 28.2018 155.666 28.2894 155.69C28.377 155.714 28.4799 155.727 28.5853 155.727C28.7265 155.727 28.8619 155.704 28.9618 155.663C29.0617 155.622 29.1178 155.567 29.1178 155.509Z" fill="#FFDB45"/>
<path d="M22.1946 156.732C22.1946 156.83 21.9997 156.91 21.7594 156.91C21.5191 156.91 21.3242 156.83 21.3242 156.732C21.3242 156.633 21.5191 156.554 21.7594 156.554C21.9997 156.554 22.1946 156.633 22.1946 156.732Z" fill="#FFDB45"/>
<path d="M15.0501 157.718C15.0512 157.69 15.0317 157.662 14.994 157.638C14.9563 157.614 14.9022 157.595 14.8385 157.584C14.7748 157.573 14.7044 157.57 14.6362 157.575C14.5681 157.58 14.5053 157.594 14.4559 157.614C14.4065 157.634 14.3727 157.659 14.3587 157.687C14.3448 157.715 14.3513 157.744 14.3776 157.77C14.4039 157.796 14.4486 157.819 14.5062 157.834C14.5637 157.85 14.6315 157.859 14.7008 157.859C14.7925 157.859 14.8804 157.844 14.9458 157.818C15.0111 157.791 15.0486 157.756 15.0501 157.718Z" fill="#FFDB45"/>
<path d="M7.72473 158.461C7.72474 158.434 7.69899 158.408 7.65297 158.389C7.60695 158.37 7.54433 158.359 7.47851 158.358C7.41169 158.358 7.3476 158.369 7.30036 158.388C7.25311 158.407 7.22656 158.434 7.22656 158.461C7.22806 158.488 7.25526 158.514 7.30235 158.532C7.34944 158.551 7.41267 158.562 7.47851 158.562C7.54381 158.562 7.60643 158.551 7.65261 158.532C7.69878 158.513 7.72473 158.488 7.72473 158.461Z" fill="#FFDB45"/>
<path d="M0.246354 158.948C0.246373 158.942 0.243083 158.935 0.236685 158.929C0.230288 158.923 0.220915 158.918 0.209135 158.913C0.197356 158.908 0.183415 158.905 0.168159 158.902C0.152902 158.9 0.136648 158.899 0.120382 158.899C0.104591 158.899 0.0889549 158.901 0.074366 158.903C0.059777 158.906 0.0465214 158.909 0.0353555 158.914C0.0241896 158.918 0.0153321 158.924 0.00928918 158.93C0.00324625 158.936 0.00013643 158.942 0.000136429 158.948C-0.000639037 158.955 0.00189722 158.962 0.00759198 158.968C0.0132867 158.974 0.022021 158.98 0.0332651 158.984C0.0445092 158.989 0.0580289 158.993 0.0730041 158.996C0.0879792 158.998 0.104097 159 0.120382 159C0.153792 159 0.185834 158.994 0.209458 158.985C0.233083 158.975 0.246354 158.962 0.246354 158.948Z" fill="#FFDB45"/>
</g>
<defs>
<clipPath id="clip0_530_177">
<rect width="159" height="161" fill="white" transform="matrix(-7.4446e-08 1 1 2.56654e-08 0 0)"/>
</clipPath>
</defs>
</svg>
