<svg width="486" height="484" viewBox="0 0 486 484" fill="none" xmlns="http://www.w3.org/2000/svg">
<g clip-path="url(#clip0_400_211)">
<path d="M320.458 114.097H240.716C238.971 114.103 237.247 113.71 235.676 112.948C234.105 112.187 232.728 111.077 231.651 109.704C230.554 108.317 229.787 106.699 229.41 104.971C229.033 103.244 229.055 101.453 229.474 99.7359C236.824 68.9528 236.823 36.872 229.474 6.08892C229.055 4.37139 229.033 2.5809 229.41 0.853707C229.787 -0.873489 230.554 -2.49189 231.651 -3.87836C232.728 -5.25195 234.105 -6.36164 235.676 -7.12299C237.247 -7.88434 238.971 -8.27729 240.716 -8.27192H320.458C323.211 -8.26401 325.872 -7.27908 327.967 -5.49256C330.062 -3.70604 331.454 -1.23394 331.897 1.48345C337.145 35.5688 337.145 70.2565 331.897 104.342C331.454 107.059 330.062 109.531 327.967 111.318C325.872 113.104 323.211 114.089 320.458 114.097Z" fill="#E6E6E6"/>
<path d="M240.718 -2.27194C239.879 -2.27476 239.051 -2.08632 238.297 -1.72096C237.542 -1.35561 236.881 -0.822962 236.363 -0.163543C235.83 0.512089 235.458 1.30041 235.275 2.14145C235.093 2.98249 235.104 3.8541 235.309 4.68997C242.879 36.3929 242.879 69.4323 235.31 101.135C235.105 101.971 235.093 102.842 235.275 103.683C235.458 104.524 235.83 105.312 236.363 105.988C236.88 106.647 237.542 107.181 238.297 107.546C239.051 107.912 239.879 108.1 240.718 108.097H320.459C321.781 108.098 323.061 107.629 324.069 106.774C325.078 105.919 325.751 104.734 325.968 103.43C331.123 69.9491 331.123 35.8762 325.968 2.39504C325.751 1.09075 325.078 -0.0942199 324.069 -0.948882C323.061 -1.80354 321.781 -2.2724 320.459 -2.27196L240.718 -2.27194Z" fill="white"/>
<path d="M303.058 26.5788H261.213C259.622 26.5771 258.097 25.9444 256.972 24.8196C255.847 23.6948 255.215 22.1697 255.213 20.579V18.2344C255.215 16.6437 255.847 15.1186 256.972 13.9938C258.097 12.869 259.622 12.2364 261.213 12.2346H303.058C304.648 12.2364 306.173 12.869 307.298 13.9938C308.423 15.1186 309.056 16.6437 309.057 18.2344V20.5791C309.056 22.1698 308.423 23.6948 307.298 24.8196C306.173 25.9444 304.648 26.5771 303.058 26.5788Z" fill="#E6E6E6"/>
<path d="M303.058 56.2045H261.213C259.622 56.2028 258.097 55.5701 256.972 54.4453C255.847 53.3205 255.215 51.7954 255.213 50.2047V47.8601C255.215 46.2694 255.847 44.7443 256.972 43.6195C258.097 42.4947 259.622 41.8621 261.213 41.8604H303.058C304.648 41.8621 306.173 42.4947 307.298 43.6195C308.423 44.7443 309.056 46.2694 309.057 47.8601V50.2047C309.056 51.7954 308.423 53.3205 307.298 54.4453C306.173 55.5701 304.648 56.2028 303.058 56.2045Z" fill="#E6E6E6"/>
<path d="M303.058 85.8302H261.213C259.622 85.8285 258.097 85.1958 256.972 84.071C255.847 82.9462 255.215 81.4211 255.213 79.8304V77.4858C255.215 75.8951 255.847 74.3701 256.972 73.2453C258.097 72.1205 259.622 71.4878 261.213 71.4861H303.058C304.648 71.4878 306.173 72.1205 307.298 73.2453C308.423 74.3701 309.056 75.8951 309.057 77.4858V79.8304C309.056 81.4211 308.423 82.9462 307.298 84.071C306.173 85.1958 304.648 85.8285 303.058 85.8302Z" fill="#E6E6E6"/>
<path d="M470.458 190.097H390.716C388.971 190.103 387.247 189.71 385.676 188.948C384.105 188.187 382.728 187.077 381.651 185.704C380.554 184.317 379.787 182.699 379.41 180.971C379.033 179.244 379.055 177.453 379.474 175.736C386.824 144.953 386.823 112.872 379.474 82.0889C379.055 80.3714 379.033 78.5809 379.41 76.8537C379.787 75.1265 380.554 73.5081 381.651 72.1216C382.728 70.748 384.105 69.6384 385.676 68.877C387.247 68.1157 388.971 67.7227 390.716 67.7281H470.458C473.211 67.736 475.872 68.7209 477.967 70.5074C480.062 72.294 481.454 74.7661 481.897 77.4835C487.145 111.569 487.145 146.257 481.897 180.342C481.454 183.059 480.062 185.531 477.967 187.318C475.872 189.104 473.211 190.089 470.458 190.097Z" fill="#E6E6E6"/>
<path d="M390.718 73.7281C389.879 73.7252 389.051 73.9137 388.297 74.279C387.542 74.6444 386.881 75.177 386.363 75.8365C385.83 76.5121 385.458 77.3004 385.275 78.1414C385.093 78.9825 385.104 79.8541 385.309 80.69C392.879 112.393 392.879 145.432 385.31 177.135C385.105 177.971 385.093 178.842 385.275 179.683C385.458 180.524 385.83 181.312 386.363 181.988C386.88 182.647 387.542 183.181 388.297 183.546C389.051 183.912 389.879 184.1 390.718 184.097H470.459C471.781 184.098 473.061 183.629 474.069 182.774C475.078 181.919 475.751 180.734 475.968 179.43C481.123 145.949 481.123 111.876 475.968 78.3951C475.751 77.0908 475.078 75.9058 474.069 75.0511C473.061 74.1965 471.781 73.7276 470.459 73.728L390.718 73.7281Z" fill="white"/>
<path d="M311.458 276.597H231.717C229.895 276.603 228.097 276.193 226.458 275.398C224.819 274.604 223.383 273.446 222.258 272.013C221.114 270.568 220.315 268.88 219.922 267.079C219.528 265.277 219.551 263.41 219.988 261.619C227.319 230.913 227.319 198.912 219.988 168.206C219.551 166.415 219.528 164.548 219.922 162.746C220.315 160.945 221.114 159.258 222.258 157.812C223.382 156.379 224.819 155.221 226.458 154.427C228.097 153.633 229.895 153.223 231.717 153.228H311.458C314.33 153.237 317.107 154.265 319.292 156.129C321.477 157.993 322.93 160.572 323.391 163.407C328.647 197.543 328.647 232.282 323.391 266.418C322.93 269.253 321.477 271.832 319.292 273.697C317.107 275.561 314.33 276.589 311.458 276.597Z" fill="#F2F2F2"/>
<path d="M453.058 131.579H411.213C409.622 131.577 408.097 130.944 406.972 129.82C405.847 128.695 405.215 127.17 405.213 125.579V123.234C405.215 121.644 405.847 120.119 406.972 118.994C408.097 117.869 409.622 117.236 411.213 117.235H453.058C454.648 117.236 456.173 117.869 457.298 118.994C458.423 120.119 459.056 121.644 459.057 123.234V125.579C459.056 127.17 458.423 128.695 457.298 129.82C456.173 130.944 454.648 131.577 453.058 131.579Z" fill="#E6E6E6"/>
<path d="M453.058 161.204H411.213C409.622 161.203 408.097 160.57 406.972 159.445C405.847 158.32 405.215 156.795 405.213 155.205V152.86C405.215 151.269 405.847 149.744 406.972 148.62C408.097 147.495 409.622 146.862 411.213 146.86H453.058C454.648 146.862 456.173 147.495 457.298 148.62C458.423 149.744 459.056 151.269 459.057 152.86V155.205C459.056 156.795 458.423 158.32 457.298 159.445C456.173 160.57 454.648 161.203 453.058 161.204Z" fill="#E6E6E6"/>
<path d="M271.811 237.5C284.513 237.5 294.811 227.203 294.811 214.5C294.811 201.797 284.513 191.5 271.811 191.5C259.108 191.5 248.811 201.797 248.811 214.5C248.811 227.203 259.108 237.5 271.811 237.5Z" fill="white"/>
<path d="M282.811 211.5H274.811V203.5C274.811 202.704 274.494 201.941 273.932 201.379C273.369 200.816 272.606 200.5 271.811 200.5C271.015 200.5 270.252 200.816 269.689 201.379C269.127 201.941 268.811 202.704 268.811 203.5V211.5H260.811C260.015 211.5 259.252 211.816 258.689 212.379C258.127 212.941 257.811 213.704 257.811 214.5C257.811 215.296 258.127 216.059 258.689 216.621C259.252 217.184 260.015 217.5 260.811 217.5H268.811V225.5C268.811 226.296 269.127 227.059 269.689 227.621C270.252 228.184 271.015 228.5 271.811 228.5C272.606 228.5 273.369 228.184 273.932 227.621C274.494 227.059 274.811 226.296 274.811 225.5V217.5H282.811C283.606 217.5 284.369 217.184 284.932 216.621C285.494 216.059 285.811 215.296 285.811 214.5C285.811 213.704 285.494 212.941 284.932 212.379C284.369 211.816 283.606 211.5 282.811 211.5Z" fill="#E6E6E6"/>
<path d="M300.811 3H258.811C257.617 2.99866 256.474 2.52412 255.63 1.6805C254.786 0.836874 254.312 -0.306938 254.311 -1.5V-9.5C254.312 -10.6931 254.786 -11.8369 255.63 -12.6805C256.474 -13.5241 257.617 -13.9987 258.811 -14H300.811C302.004 -13.9987 303.147 -13.5241 303.991 -12.6805C304.835 -11.8369 305.309 -10.6931 305.311 -9.5V-1.5C305.309 -0.306938 304.835 0.836874 303.991 1.6805C303.147 2.52412 302.004 2.99866 300.811 3Z" fill="#CCCCCC"/>
<path d="M452.811 94H410.811C409.617 93.9987 408.474 93.5241 407.63 92.6805C406.786 91.8369 406.312 90.6931 406.311 89.5V81.5C406.312 80.3069 406.786 79.1631 407.63 78.3195C408.474 77.4759 409.617 77.0013 410.811 77H452.811C454.004 77.0013 455.147 77.4759 455.991 78.3195C456.835 79.1631 457.309 80.3069 457.311 81.5V89.5C457.309 90.6931 456.835 91.8369 455.991 92.6805C455.147 93.5241 454.004 93.9987 452.811 94Z" fill="#CCCCCC"/>
<path d="M88.5957 457.061H100.856L104.689 409.773H88.5938L88.5957 457.061Z" fill="#FFB8B8"/>
<path d="M85.4688 453.058L109.613 453.057H109.614C111.634 453.057 113.635 453.455 115.502 454.228C117.368 455.002 119.065 456.135 120.493 457.564C121.922 458.993 123.056 460.689 123.829 462.555C124.602 464.422 125 466.423 125 468.444V468.944L85.4695 468.945L85.4688 453.058Z" fill="#2F2E41"/>
<path d="M22.5958 457.061H34.8557L40.6887 409.773H22.5938L22.5958 457.061Z" fill="#FFB8B8"/>
<path d="M19.4688 453.058L43.6125 453.057H43.6136C45.6341 453.057 47.6349 453.455 49.5017 454.228C51.3685 455.002 53.0647 456.135 54.4935 457.564C55.9222 458.993 57.0556 460.689 57.8288 462.555C58.6021 464.422 59.0001 466.423 59 468.444V468.944L19.4695 468.945L19.4688 453.058Z" fill="#2F2E41"/>
<path d="M24.7707 442.123C23.5201 442.122 22.3153 441.652 21.3957 440.804C20.902 440.354 20.5044 439.808 20.2268 439.201C19.9491 438.593 19.7972 437.935 19.7799 437.267L14.8633 261.054L84.6744 278.506L106.214 343.124C108.992 351.436 110.194 360.194 109.759 368.948L107.085 431.584C107.024 432.868 106.471 434.078 105.541 434.964C104.611 435.85 103.375 436.344 102.09 436.343H90.3815C89.1729 436.338 88.0066 435.898 87.0965 435.103C86.1864 434.307 85.5936 433.211 85.4266 432.014L77.0577 362.872C76.3264 357.478 74.4396 352.306 71.526 347.708L55.0565 321.632C54.9464 321.458 54.7851 321.322 54.5948 321.243C54.4045 321.164 54.1945 321.145 53.9933 321.19C53.7922 321.235 53.6099 321.341 53.4713 321.494C53.3327 321.646 53.2445 321.838 53.2189 322.042L40.2943 437.13C40.1555 438.298 39.6094 439.379 38.752 440.183C37.8947 440.987 36.7811 441.463 35.6073 441.527L25.0553 442.114C24.9604 442.119 24.8656 442.123 24.7707 442.123Z" fill="#2F2E41"/>
<path d="M73.0571 146.967C86.6218 146.967 97.6182 135.971 97.6182 122.406C97.6182 108.841 86.6218 97.845 73.0571 97.845C59.4924 97.845 48.4961 108.841 48.4961 122.406C48.4961 135.971 59.4924 146.967 73.0571 146.967Z" fill="#FFB8B8"/>
<path d="M84.341 285.672C83.9183 285.672 83.4974 285.618 83.088 285.513L13.823 267.753C12.5846 267.436 11.5148 266.657 10.8335 265.575C10.1522 264.493 9.91123 263.192 10.1601 261.938L26.0673 176.247C27.0583 171.294 29.2367 166.655 32.4155 162.729C35.5942 158.803 39.6783 155.707 44.317 153.708C48.8369 151.707 53.7797 150.85 58.7092 151.212C63.6387 151.574 68.4034 153.144 72.5826 155.783C73.5524 156.388 74.5292 157.047 75.4852 157.744C79.3341 160.583 82.4729 164.275 84.6553 168.531C86.8377 172.787 88.0045 177.491 88.0641 182.273L89.329 280.602C89.3375 281.263 89.2149 281.919 88.9682 282.533C88.7216 283.147 88.3558 283.705 87.892 284.177C87.4282 284.648 86.8756 285.023 86.2661 285.28C85.6566 285.537 85.0023 285.67 84.341 285.672Z" fill="#0E3B43"/>
<path d="M20.9495 286.68C20.1233 285.464 19.5736 284.082 19.3394 282.63C19.1052 281.179 19.192 279.694 19.5938 278.28C19.9955 276.866 20.7025 275.557 21.6648 274.446C22.6271 273.334 23.8214 272.448 25.1635 271.848L22.0827 236.246L38.4087 245.094L38.8313 277.546C39.6896 279.867 39.6666 282.423 38.7664 284.729C37.8663 287.034 36.1517 288.93 33.9476 290.055C31.7434 291.181 29.2028 291.46 26.8072 290.837C24.4116 290.215 22.3273 288.736 20.9495 286.68Z" fill="#FFB8B8"/>
<path d="M26.783 267.139C26.3223 267.139 25.8635 267.08 25.4173 266.966C24.4574 266.721 23.5815 266.222 22.8823 265.52C22.1832 264.818 21.6867 263.941 21.4453 262.98L13.4221 231.096C10.6183 219.96 11.9549 208.185 17.1834 197.961L33.9922 165.08C35.0548 161.143 37.6221 157.781 41.1405 155.72C44.659 153.659 48.8466 153.063 52.8003 154.061C54.7709 154.559 56.6232 155.442 58.2496 156.661C59.8761 157.88 61.2444 159.41 62.2752 161.162C63.3272 162.938 64.0152 164.907 64.2992 166.952C64.5832 168.997 64.4574 171.078 63.9292 173.075L40.0017 226.58L40.2859 258.616C40.2933 259.746 39.9535 260.852 39.3124 261.782C38.6713 262.713 37.76 263.425 36.7014 263.821L28.6941 266.794C28.0827 267.022 27.4355 267.139 26.783 267.139Z" fill="#0E3B43"/>
<path d="M141.318 273.585C139.858 273.418 138.452 272.933 137.199 272.163C135.946 271.394 134.877 270.36 134.067 269.133C133.258 267.906 132.727 266.516 132.512 265.062C132.298 263.607 132.405 262.124 132.825 260.715L103.832 239.826L121.189 233.224L146.06 254.073C148.38 254.937 150.302 256.622 151.462 258.808C152.622 260.994 152.94 263.53 152.356 265.935C151.771 268.34 150.325 270.447 148.291 271.857C146.256 273.267 143.776 273.882 141.318 273.585Z" fill="#FFB8B8"/>
<path d="M126.14 258.33C125.285 258.33 124.442 258.131 123.677 257.749L94.2781 243.032C84.0095 237.892 75.9568 229.198 71.6175 218.566L57.6602 184.376C55.3697 181.002 54.4968 176.863 55.2297 172.852C55.9626 168.84 58.2425 165.278 61.5779 162.932C63.2444 161.76 65.1275 160.931 67.1174 160.495C69.1073 160.058 71.1642 160.022 73.1683 160.388C75.1958 160.753 77.1309 161.516 78.8614 162.634C80.5918 163.752 82.0832 165.202 83.2491 166.9L108.194 219.94L132.66 240.622C133.521 241.354 134.138 242.332 134.425 243.426C134.712 244.519 134.657 245.674 134.267 246.734L131.297 254.743C130.909 255.793 130.209 256.699 129.29 257.339C128.366 257.984 127.267 258.331 126.14 258.33Z" fill="#0E3B43"/>
<path d="M67.9002 147.343C69.2052 147.914 71.8775 137.516 70.6804 135.436C68.9002 132.343 69.0054 132.365 67.8236 130.319C66.6418 128.273 66.3774 125.472 67.9078 123.672C69.4382 121.871 72.9798 122.11 73.6782 124.367C73.2289 120.08 77.4701 116.633 81.6712 115.664C85.8723 114.696 90.3037 115.297 94.5279 114.435C99.4303 113.435 104.531 109.325 102.575 103.934C102.239 103.037 101.737 102.211 101.094 101.5C98.8341 98.9593 95.6729 97.8743 92.582 96.8253C86.152 94.6428 79.546 92.4329 72.7599 92.6738C67.1685 92.9662 61.7836 94.8822 57.2642 98.1873C52.7448 101.492 49.2868 106.043 47.3136 111.283C46.8459 112.594 46.4836 113.94 46.2301 115.308C43.9009 127.833 51.1738 140.186 62.9864 144.956L67.9002 147.343Z" fill="#2F2E41"/>
<path opacity="0.2" d="M38.9004 259.343L39.4574 226.414L56.9004 191.343L42.9004 227.343L38.9004 259.343Z" fill="black"/>
<path d="M197.078 341.982L123.439 311.387C121.825 310.722 120.384 309.698 119.225 308.392C118.067 307.086 117.221 305.533 116.753 303.851C116.272 302.15 116.185 300.361 116.5 298.621C116.814 296.882 117.521 295.236 118.568 293.811C137.165 268.204 149.474 238.578 154.498 207.331C154.77 205.585 155.437 203.923 156.448 202.472C157.459 201.022 158.788 199.822 160.332 198.962C161.855 198.107 163.552 197.61 165.295 197.51C167.037 197.41 168.78 197.708 170.39 198.383L244.029 228.979C246.568 230.042 248.648 231.973 249.897 234.426C251.146 236.88 251.483 239.697 250.849 242.376C242.618 275.867 229.308 307.9 211.384 337.363C209.933 339.702 207.698 341.451 205.078 342.297C202.458 343.143 199.623 343.031 197.078 341.982Z" fill="#E6E6E6"/>
<path d="M168.087 203.924C167.314 203.6 166.477 203.456 165.64 203.504C164.803 203.552 163.988 203.79 163.257 204.2C162.505 204.62 161.859 205.205 161.368 205.912C160.877 206.618 160.553 207.428 160.421 208.278C155.247 240.459 142.571 270.97 123.417 297.342C122.907 298.035 122.562 298.835 122.408 299.682C122.254 300.529 122.295 301.399 122.528 302.227C122.753 303.035 123.159 303.781 123.716 304.408C124.272 305.035 124.965 305.527 125.74 305.846L199.378 336.442C200.599 336.949 201.961 337.007 203.22 336.605C204.48 336.203 205.556 335.367 206.256 334.246C223.863 305.305 236.936 273.84 245.022 240.943C245.322 239.655 245.155 238.303 244.552 237.127C243.948 235.95 242.946 235.027 241.725 234.52L168.087 203.924Z" fill="white"/>
<path d="M207.297 272.031L168.655 255.976C167.186 255.364 166.021 254.195 165.414 252.725C164.807 251.254 164.807 249.603 165.416 248.134L166.316 245.968C166.928 244.5 168.097 243.335 169.567 242.727C171.038 242.12 172.689 242.121 174.158 242.73L212.801 258.785C214.269 259.397 215.435 260.566 216.042 262.037C216.649 263.507 216.648 265.158 216.039 266.628L215.14 268.793C214.528 270.261 213.358 271.427 211.888 272.034C210.418 272.641 208.767 272.64 207.297 272.031Z" fill="#0E3B43"/>
<path d="M195.93 299.39L157.288 283.335C155.819 282.723 154.654 281.553 154.047 280.083C153.439 278.613 153.44 276.962 154.049 275.492L154.949 273.327C155.561 271.859 156.73 270.693 158.2 270.086C159.67 269.479 161.322 269.48 162.791 270.088L201.434 286.144C202.902 286.756 204.067 287.925 204.675 289.395C205.282 290.865 205.281 292.517 204.672 293.986L203.773 296.151C203.161 297.62 201.991 298.785 200.521 299.392C199.051 300 197.4 299.999 195.93 299.39Z" fill="#0E3B43"/>
<path d="M222.781 233.582C222.202 233.581 221.629 233.469 221.093 233.251L182.156 217.509C181.05 217.06 180.167 216.192 179.702 215.093C179.236 213.995 179.224 212.757 179.67 211.65L182.669 204.233C183.116 203.127 183.985 202.244 185.084 201.778C186.182 201.312 187.421 201.301 188.528 201.748L227.466 217.491C228.571 217.94 229.454 218.808 229.92 219.906C230.385 221.005 230.397 222.243 229.951 223.35L226.952 230.767C226.615 231.597 226.039 232.309 225.296 232.81C224.553 233.311 223.677 233.58 222.781 233.582Z" fill="#CCCCCC"/>
<path d="M141 469.5H1C0.734784 469.5 0.480444 469.395 0.292908 469.207C0.105371 469.02 0 468.765 0 468.5C0 468.235 0.105371 467.98 0.292908 467.793C0.480444 467.605 0.734784 467.5 1 467.5H141C141.265 467.5 141.52 467.605 141.707 467.793C141.895 467.98 142 468.235 142 468.5C142 468.765 141.895 469.02 141.707 469.207C141.52 469.395 141.265 469.5 141 469.5Z" fill="#CCCCCC"/>
</g>
<defs>
<clipPath id="clip0_400_211">
<rect width="485.834" height="483.5" fill="white"/>
</clipPath>
</defs>
</svg>
