<svg width="596" height="431" viewBox="0 0 596 431" fill="none" xmlns="http://www.w3.org/2000/svg">
<g clip-path="url(#clip0_400_389)">
<path d="M595.139 388.695H0.861272C0.632848 388.695 0.41378 388.604 0.25226 388.442C0.0907402 388.28 0 388.061 0 387.832C0 387.604 0.0907402 387.384 0.25226 387.223C0.41378 387.061 0.632848 386.97 0.861272 386.97H595.139C595.367 386.97 595.586 387.061 595.748 387.223C595.909 387.384 596 387.604 596 387.832C596 388.061 595.909 388.28 595.748 388.442C595.586 388.604 595.367 388.695 595.139 388.695Z" fill="#CCCCCC"/>
<path d="M536.318 238.323H186.641C185.156 238.323 183.733 238.914 182.683 239.965C181.633 241.016 181.043 242.441 181.043 243.928C181.043 245.414 181.633 246.839 182.683 247.891C183.733 248.942 185.156 249.532 186.641 249.532H196.546V383.606C196.546 385.092 197.136 386.518 198.186 387.569C199.235 388.62 200.659 389.21 202.144 389.21C203.629 389.21 205.053 388.62 206.103 387.569C207.153 386.518 207.742 385.092 207.742 383.606L207.827 249.532H514.355V383.606C514.355 385.092 514.945 386.518 515.995 387.569C517.045 388.62 518.469 389.21 519.953 389.21C521.438 389.21 522.862 388.62 523.912 387.569C524.962 386.518 525.552 385.092 525.552 383.606V252.487L527.18 249.532H536.318C537.802 249.532 539.226 248.942 540.276 247.891C541.326 246.839 541.916 245.414 541.916 243.928C541.916 242.441 541.326 241.016 540.276 239.965C539.226 238.914 537.802 238.323 536.318 238.323Z" fill="#CCCCCC"/>
<path d="M380.504 241.256H274.583C272.532 241.254 270.566 240.437 269.116 238.986C267.666 237.534 266.85 235.565 266.848 233.512V175.132C266.85 173.079 267.666 171.111 269.116 169.659C270.566 168.207 272.532 167.391 274.583 167.388H380.504C382.555 167.391 384.521 168.207 385.972 169.659C387.422 171.111 388.238 173.079 388.24 175.132V233.512C388.238 235.565 387.422 237.534 385.972 238.986C384.521 240.437 382.555 241.254 380.504 241.256Z" fill="#3F3D56"/>
<path d="M380.505 173.348H274.585C274.113 173.349 273.66 173.538 273.326 173.872C272.992 174.207 272.804 174.66 272.803 175.133V233.513C272.804 233.986 272.992 234.44 273.326 234.774C273.66 235.109 274.113 235.297 274.585 235.298H380.505C380.978 235.297 381.43 235.109 381.764 234.774C382.099 234.44 382.287 233.986 382.288 233.513V175.133C382.287 174.66 382.099 174.207 381.764 173.872C381.43 173.538 380.978 173.349 380.505 173.348Z" fill="white"/>
<path d="M336.577 214.681C336.577 214.681 323.897 211.756 316.923 217.118C309.949 222.481 325.799 234.669 325.799 234.669L336.577 214.681Z" fill="#2F2E41"/>
<path d="M328.166 209.155C334.771 209.155 340.126 203.794 340.126 197.181C340.126 190.568 334.771 185.208 328.166 185.208C321.56 185.208 316.205 190.568 316.205 197.181C316.205 203.794 321.56 209.155 328.166 209.155Z" fill="#A0616A"/>
<path d="M318.917 180.373C319.715 179.018 320.871 177.909 322.258 177.17C323.645 176.432 325.209 176.091 326.778 176.186C328.418 176.392 330.019 176.841 331.528 177.517L339.347 180.571C341.37 181.361 343.586 182.328 344.464 184.317C345.279 186.163 344.671 188.294 344.055 190.215L341.13 199.349C340.806 197.282 340.25 195.258 339.472 193.316C338.682 191.36 337.254 189.73 335.421 188.691C333.39 187.648 330.996 187.669 328.716 187.779C325.487 187.935 321.976 188.346 319.682 190.626C318.464 191.921 317.638 193.535 317.301 195.281C316.969 197.018 316.801 198.783 316.801 200.551C315.477 198.272 314.362 195.878 313.469 193.399C312.734 191.552 312.316 189.595 312.231 187.609C312.154 185.606 312.818 183.645 314.095 182.102C314.743 181.348 315.589 180.79 316.537 180.491C317.485 180.192 318.498 180.165 319.461 180.411L318.917 180.373Z" fill="#2F2E41"/>
<path d="M356.724 225.064C356.612 224.659 356.383 224.297 356.066 224.023C355.749 223.748 355.358 223.573 354.942 223.52C354.914 223.501 354.885 223.484 354.855 223.469L337 213.451C336.49 213.165 335.89 213.087 335.324 213.233C334.758 213.379 334.27 213.737 333.961 214.234L329.078 222.15L321.723 214.786L321.606 214.669C321.228 214.291 320.73 214.059 320.198 214.012C319.666 213.965 319.135 214.108 318.698 214.415L304.023 224.702C303.998 224.702 303.972 224.71 303.946 224.71C303.244 224.827 302.602 225.181 302.128 225.712C301.653 226.244 301.374 226.921 301.336 227.633L300.957 235.298H359.558L356.724 225.064Z" fill="#0E3B43"/>
<path d="M389.431 234.108H378.125C378.125 233.792 378 233.489 377.776 233.265C377.553 233.042 377.251 232.917 376.935 232.917H373.365C373.049 232.917 372.746 233.042 372.523 233.265C372.3 233.489 372.174 233.792 372.174 234.108H368.604C368.604 233.792 368.479 233.489 368.255 233.265C368.032 233.042 367.73 232.917 367.414 232.917H363.844C363.528 232.917 363.225 233.042 363.002 233.265C362.779 233.489 362.653 233.792 362.653 234.108H359.083C359.083 233.792 358.958 233.489 358.734 233.265C358.511 233.042 358.209 232.917 357.893 232.917H354.323C354.007 232.917 353.704 233.042 353.481 233.265C353.258 233.489 353.132 233.792 353.132 234.108H349.562C349.562 233.792 349.437 233.489 349.214 233.265C348.99 233.042 348.688 232.917 348.372 232.917H344.802C344.486 232.917 344.183 233.042 343.96 233.265C343.737 233.489 343.612 233.792 343.612 234.108H340.041C340.041 233.792 339.916 233.489 339.693 233.265C339.469 233.042 339.167 232.917 338.851 232.917H335.281C334.965 232.917 334.662 233.042 334.439 233.265C334.216 233.489 334.091 233.792 334.091 234.108H330.52C330.52 233.792 330.395 233.489 330.172 233.265C329.948 233.042 329.646 232.917 329.33 232.917H325.76C325.444 232.917 325.141 233.042 324.918 233.265C324.695 233.489 324.57 233.792 324.57 234.108H320.999C320.999 233.792 320.874 233.489 320.651 233.265C320.427 233.042 320.125 232.917 319.809 232.917H316.239C315.923 232.917 315.62 233.042 315.397 233.265C315.174 233.489 315.049 233.792 315.049 234.108H311.478C311.478 233.792 311.353 233.489 311.13 233.265C310.906 233.042 310.604 232.917 310.288 232.917H306.718C306.402 232.917 306.099 233.042 305.876 233.265C305.653 233.489 305.528 233.792 305.528 234.108H301.957C301.957 233.792 301.832 233.489 301.609 233.265C301.385 233.042 301.083 232.917 300.767 232.917H297.197C296.881 232.917 296.578 233.042 296.355 233.265C296.132 233.489 296.007 233.792 296.007 234.108H292.436C292.436 233.792 292.311 233.489 292.088 233.265C291.865 233.042 291.562 232.917 291.246 232.917H287.676C287.36 232.917 287.057 233.042 286.834 233.265C286.611 233.489 286.486 233.792 286.486 234.108H282.915C282.915 233.792 282.79 233.489 282.567 233.265C282.344 233.042 282.041 232.917 281.725 232.917H278.155C277.839 232.917 277.536 233.042 277.313 233.265C277.09 233.489 276.965 233.792 276.965 234.108H265.659C264.713 234.109 263.806 234.487 263.138 235.157C262.469 235.827 262.094 236.735 262.094 237.682C262.094 238.629 262.469 239.537 263.138 240.208C263.806 240.878 264.713 241.255 265.659 241.256H389.431C390.378 241.256 391.286 240.88 391.956 240.21C392.625 239.539 393.002 238.63 393.002 237.682C393.002 236.734 392.625 235.825 391.956 235.155C391.286 234.485 390.378 234.108 389.431 234.108Z" fill="#3F3D56"/>
<path d="M247.252 213.351V237.084H187.857C186.266 237.139 184.68 236.874 183.193 236.302C181.707 235.731 180.35 234.866 179.205 233.758C178.06 232.651 177.149 231.324 176.527 229.857C175.905 228.389 175.584 226.811 175.584 225.217C175.584 223.623 175.905 222.046 176.527 220.578C177.149 219.111 178.06 217.784 179.205 216.677C180.35 215.569 181.707 214.704 183.193 214.133C184.68 213.561 186.266 213.295 187.857 213.351H247.252Z" fill="#F2F2F2"/>
<path d="M248.713 236.901C248.712 237.143 248.616 237.376 248.445 237.547C248.274 237.718 248.042 237.814 247.801 237.814H186.8C183.487 237.814 180.31 236.497 177.967 234.151C175.625 231.806 174.309 228.625 174.309 225.309C174.309 221.992 175.625 218.811 177.967 216.466C180.31 214.121 183.487 212.803 186.8 212.803H247.801C248.042 212.803 248.274 212.899 248.445 213.071C248.616 213.242 248.713 213.474 248.713 213.716C248.713 213.958 248.616 214.19 248.445 214.361C248.274 214.533 248.042 214.629 247.801 214.629H186.8C183.973 214.631 181.262 215.758 179.263 217.76C177.264 219.763 176.142 222.478 176.142 225.309C176.142 228.14 177.264 230.854 179.263 232.857C181.262 234.86 183.973 235.986 186.8 235.989H247.801C248.042 235.989 248.274 236.085 248.445 236.256C248.616 236.427 248.712 236.659 248.713 236.901Z" fill="#A3BBAD"/>
<path d="M247.253 218.828H183.426C183.402 218.828 183.378 218.823 183.356 218.814C183.333 218.805 183.313 218.791 183.296 218.775C183.279 218.758 183.265 218.737 183.256 218.715C183.247 218.693 183.242 218.669 183.242 218.645C183.242 218.621 183.247 218.597 183.256 218.575C183.265 218.553 183.279 218.532 183.296 218.515C183.313 218.498 183.333 218.485 183.356 218.476C183.378 218.467 183.402 218.462 183.426 218.462H247.253C247.301 218.463 247.347 218.482 247.381 218.516C247.415 218.551 247.434 218.597 247.434 218.645C247.434 218.693 247.415 218.739 247.381 218.774C247.347 218.808 247.301 218.827 247.253 218.828Z" fill="#CCCCCC"/>
<path d="M247.253 223.209H183.426C183.402 223.21 183.378 223.205 183.356 223.196C183.333 223.187 183.313 223.173 183.296 223.156C183.279 223.139 183.265 223.119 183.256 223.097C183.247 223.075 183.242 223.051 183.242 223.027C183.242 223.003 183.247 222.979 183.256 222.957C183.265 222.934 183.279 222.914 183.296 222.897C183.313 222.88 183.333 222.867 183.356 222.858C183.378 222.849 183.402 222.844 183.426 222.844H247.253C247.301 222.845 247.347 222.864 247.381 222.898C247.415 222.932 247.434 222.979 247.434 223.027C247.434 223.075 247.415 223.121 247.381 223.155C247.347 223.19 247.301 223.209 247.253 223.209Z" fill="#CCCCCC"/>
<path d="M247.253 227.591H183.426C183.402 227.591 183.378 227.586 183.356 227.577C183.333 227.568 183.313 227.555 183.296 227.538C183.279 227.521 183.265 227.501 183.256 227.478C183.247 227.456 183.242 227.432 183.242 227.408C183.242 227.384 183.247 227.36 183.256 227.338C183.265 227.316 183.279 227.296 183.296 227.279C183.313 227.262 183.333 227.248 183.356 227.239C183.378 227.23 183.402 227.225 183.426 227.226H247.253C247.301 227.226 247.347 227.245 247.381 227.28C247.415 227.314 247.434 227.36 247.434 227.408C247.434 227.456 247.415 227.503 247.381 227.537C247.347 227.571 247.301 227.59 247.253 227.591Z" fill="#CCCCCC"/>
<path d="M247.253 231.972H183.426C183.402 231.972 183.378 231.968 183.356 231.959C183.333 231.949 183.313 231.936 183.296 231.919C183.279 231.902 183.265 231.882 183.256 231.86C183.247 231.837 183.242 231.814 183.242 231.789C183.242 231.765 183.247 231.742 183.256 231.719C183.265 231.697 183.279 231.677 183.296 231.66C183.313 231.643 183.333 231.63 183.356 231.62C183.378 231.611 183.402 231.607 183.426 231.607H247.253C247.301 231.607 247.347 231.627 247.381 231.661C247.415 231.695 247.434 231.741 247.434 231.789C247.434 231.838 247.415 231.884 247.381 231.918C247.347 231.952 247.301 231.972 247.253 231.972Z" fill="#CCCCCC"/>
<path d="M236.057 188.347V212.08H176.662C175.071 212.135 173.484 211.869 171.998 211.298C170.511 210.726 169.155 209.861 168.01 208.754C166.864 207.646 165.954 206.319 165.331 204.852C164.709 203.385 164.389 201.807 164.389 200.213C164.389 198.619 164.709 197.041 165.331 195.574C165.954 194.107 166.864 192.78 168.01 191.672C169.155 190.565 170.511 189.7 171.998 189.128C173.484 188.557 175.071 188.291 176.662 188.347H236.057Z" fill="#F2F2F2"/>
<path d="M237.515 211.897C237.515 212.139 237.419 212.371 237.248 212.542C237.077 212.713 236.845 212.81 236.603 212.81H175.603C173.963 212.81 172.338 212.486 170.823 211.858C169.307 211.229 167.93 210.308 166.77 209.147C165.61 207.986 164.69 206.607 164.062 205.09C163.434 203.573 163.111 201.947 163.111 200.304C163.111 198.662 163.434 197.036 164.062 195.519C164.69 194.001 165.61 192.623 166.77 191.462C167.93 190.3 169.307 189.379 170.823 188.751C172.338 188.122 173.963 187.799 175.603 187.799H236.603C236.845 187.799 237.077 187.895 237.248 188.066C237.419 188.237 237.515 188.47 237.515 188.712C237.515 188.954 237.419 189.186 237.248 189.357C237.077 189.528 236.845 189.624 236.603 189.624H175.603C172.775 189.627 170.064 190.753 168.066 192.756C166.067 194.758 164.945 197.473 164.945 200.304C164.945 203.135 166.067 205.85 168.066 207.853C170.064 209.855 172.775 210.982 175.603 210.984H236.603C236.845 210.984 237.077 211.08 237.248 211.252C237.419 211.423 237.515 211.655 237.515 211.897Z" fill="#3F3D56"/>
<path d="M236.057 193.824H172.23C172.206 193.824 172.183 193.819 172.16 193.81C172.138 193.801 172.118 193.788 172.101 193.771C172.084 193.754 172.07 193.733 172.061 193.711C172.052 193.689 172.047 193.665 172.047 193.641C172.047 193.617 172.052 193.593 172.061 193.571C172.07 193.549 172.084 193.529 172.101 193.512C172.118 193.495 172.138 193.481 172.16 193.472C172.183 193.463 172.206 193.458 172.23 193.459H236.057C236.105 193.459 236.152 193.478 236.186 193.512C236.219 193.547 236.239 193.593 236.239 193.641C236.239 193.689 236.219 193.736 236.186 193.77C236.152 193.804 236.105 193.823 236.057 193.824Z" fill="#CCCCCC"/>
<path d="M236.057 198.205H172.23C172.206 198.205 172.183 198.201 172.16 198.191C172.138 198.182 172.118 198.169 172.101 198.152C172.084 198.135 172.07 198.115 172.061 198.093C172.052 198.07 172.047 198.046 172.047 198.022C172.047 197.998 172.052 197.974 172.061 197.952C172.07 197.93 172.084 197.91 172.101 197.893C172.118 197.876 172.138 197.862 172.16 197.853C172.183 197.844 172.206 197.84 172.23 197.84H236.057C236.105 197.84 236.152 197.86 236.186 197.894C236.219 197.928 236.239 197.974 236.239 198.022C236.239 198.071 236.219 198.117 236.186 198.151C236.152 198.185 236.105 198.205 236.057 198.205Z" fill="#CCCCCC"/>
<path d="M236.057 202.587H172.23C172.206 202.587 172.183 202.582 172.16 202.573C172.138 202.564 172.118 202.551 172.101 202.534C172.084 202.517 172.07 202.497 172.061 202.474C172.052 202.452 172.047 202.428 172.047 202.404C172.047 202.38 172.052 202.356 172.061 202.334C172.07 202.312 172.084 202.292 172.101 202.275C172.118 202.258 172.138 202.244 172.16 202.235C172.183 202.226 172.206 202.222 172.23 202.222H236.057C236.105 202.222 236.152 202.241 236.186 202.276C236.219 202.31 236.239 202.356 236.239 202.404C236.239 202.452 236.219 202.499 236.186 202.533C236.152 202.567 236.105 202.586 236.057 202.587Z" fill="#CCCCCC"/>
<path d="M236.057 206.968H172.23C172.206 206.968 172.183 206.964 172.16 206.955C172.138 206.945 172.118 206.932 172.101 206.915C172.084 206.898 172.07 206.878 172.061 206.856C172.052 206.834 172.047 206.81 172.047 206.786C172.047 206.762 172.052 206.738 172.061 206.715C172.07 206.693 172.084 206.673 172.101 206.656C172.118 206.639 172.138 206.626 172.16 206.617C172.183 206.607 172.206 206.603 172.23 206.603H236.057C236.105 206.603 236.152 206.623 236.186 206.657C236.219 206.691 236.239 206.737 236.239 206.786C236.239 206.834 236.219 206.88 236.186 206.914C236.152 206.948 236.105 206.968 236.057 206.968Z" fill="#CCCCCC"/>
<path d="M305.151 321.442V300.749C305.151 299.834 304.788 298.957 304.142 298.31C303.495 297.664 302.619 297.3 301.706 297.3H223.33C222.416 297.3 221.54 297.664 220.894 298.31C220.248 298.957 219.885 299.834 219.885 300.749V321.442H305.151Z" fill="#CCCCCC"/>
<path d="M305.151 329.202H219.885V355.931H305.151V329.202Z" fill="#CCCCCC"/>
<path d="M219.885 363.69V384.384C219.885 385.298 220.248 386.175 220.894 386.822C221.54 387.469 222.416 387.832 223.33 387.832H301.706C302.619 387.832 303.495 387.469 304.142 386.822C304.788 386.175 305.151 385.298 305.151 384.384V363.69H219.885Z" fill="#CCCCCC"/>
<path d="M262.088 312.82C263.515 312.82 264.672 311.662 264.672 310.233C264.672 308.805 263.515 307.646 262.088 307.646C260.661 307.646 259.504 308.805 259.504 310.233C259.504 311.662 260.661 312.82 262.088 312.82Z" fill="white"/>
<path d="M262.088 347.309C263.515 347.309 264.672 346.15 264.672 344.722C264.672 343.293 263.515 342.135 262.088 342.135C260.661 342.135 259.504 343.293 259.504 344.722C259.504 346.15 260.661 347.309 262.088 347.309Z" fill="white"/>
<path d="M262.226 381.067C263.653 381.067 264.81 379.909 264.81 378.48C264.81 377.052 263.653 375.894 262.226 375.894C260.799 375.894 259.643 377.052 259.643 378.48C259.643 379.909 260.799 381.067 262.226 381.067Z" fill="white"/>
<path d="M295.485 273.706V297.439H236.09C234.498 297.494 232.912 297.229 231.426 296.657C229.939 296.086 228.583 295.221 227.437 294.113C226.292 293.006 225.381 291.679 224.759 290.212C224.137 288.744 223.816 287.166 223.816 285.572C223.816 283.978 224.137 282.401 224.759 280.933C225.381 279.466 226.292 278.139 227.437 277.032C228.583 275.924 229.939 275.059 231.426 274.488C232.912 273.916 234.498 273.65 236.09 273.706H295.485Z" fill="#F2F2F2"/>
<path d="M296.944 297.256C296.943 297.498 296.847 297.731 296.676 297.902C296.505 298.073 296.274 298.169 296.032 298.169H235.032C233.39 298.171 231.765 297.848 230.248 297.22C228.731 296.592 227.353 295.671 226.192 294.51C225.031 293.349 224.11 291.97 223.481 290.452C222.853 288.934 222.529 287.307 222.529 285.664C222.529 284.021 222.853 282.394 223.481 280.876C224.11 279.358 225.031 277.979 226.192 276.817C227.353 275.656 228.731 274.735 230.248 274.107C231.765 273.479 233.39 273.157 235.032 273.158H296.032C296.274 273.158 296.505 273.254 296.676 273.426C296.847 273.597 296.944 273.829 296.944 274.071C296.944 274.313 296.847 274.545 296.676 274.716C296.505 274.888 296.274 274.984 296.032 274.984H235.032C232.204 274.986 229.493 276.113 227.494 278.115C225.496 280.118 224.373 282.833 224.373 285.664C224.373 288.494 225.496 291.209 227.494 293.212C229.493 295.215 232.204 296.341 235.032 296.344H296.032C296.274 296.344 296.505 296.44 296.676 296.611C296.847 296.782 296.943 297.014 296.944 297.256Z" fill="#3F3D56"/>
<path d="M295.485 279.183H231.658C231.634 279.183 231.61 279.178 231.588 279.169C231.566 279.16 231.546 279.146 231.528 279.13C231.511 279.113 231.498 279.092 231.489 279.07C231.479 279.048 231.475 279.024 231.475 279C231.475 278.976 231.479 278.952 231.489 278.93C231.498 278.908 231.511 278.887 231.528 278.87C231.546 278.853 231.566 278.84 231.588 278.831C231.61 278.822 231.634 278.817 231.658 278.817H295.485C295.533 278.818 295.579 278.837 295.613 278.871C295.647 278.906 295.666 278.952 295.666 279C295.666 279.048 295.647 279.094 295.613 279.129C295.579 279.163 295.533 279.182 295.485 279.183Z" fill="#CCCCCC"/>
<path d="M295.485 283.564H231.658C231.634 283.565 231.61 283.56 231.588 283.551C231.566 283.542 231.546 283.528 231.528 283.511C231.511 283.494 231.498 283.474 231.489 283.452C231.479 283.43 231.475 283.406 231.475 283.382C231.475 283.358 231.479 283.334 231.489 283.312C231.498 283.289 231.511 283.269 231.528 283.252C231.546 283.235 231.566 283.222 231.588 283.213C231.61 283.204 231.634 283.199 231.658 283.199H295.485C295.533 283.2 295.579 283.219 295.613 283.253C295.647 283.287 295.666 283.334 295.666 283.382C295.666 283.43 295.647 283.476 295.613 283.51C295.579 283.545 295.533 283.564 295.485 283.564Z" fill="#CCCCCC"/>
<path d="M295.485 287.946H231.658C231.634 287.946 231.61 287.941 231.588 287.932C231.566 287.923 231.546 287.91 231.528 287.893C231.511 287.876 231.498 287.856 231.489 287.833C231.479 287.811 231.475 287.787 231.475 287.763C231.475 287.739 231.479 287.715 231.489 287.693C231.498 287.671 231.511 287.651 231.528 287.634C231.546 287.617 231.566 287.603 231.588 287.594C231.61 287.585 231.634 287.58 231.658 287.581H295.485C295.533 287.581 295.579 287.6 295.613 287.634C295.647 287.669 295.666 287.715 295.666 287.763C295.666 287.811 295.647 287.858 295.613 287.892C295.579 287.926 295.533 287.945 295.485 287.946Z" fill="#CCCCCC"/>
<path d="M295.485 292.327H231.658C231.634 292.327 231.61 292.323 231.588 292.314C231.566 292.304 231.546 292.291 231.528 292.274C231.511 292.257 231.498 292.237 231.489 292.215C231.479 292.192 231.475 292.169 231.475 292.144C231.475 292.12 231.479 292.097 231.489 292.074C231.498 292.052 231.511 292.032 231.528 292.015C231.546 291.998 231.566 291.985 231.588 291.975C231.61 291.966 231.634 291.962 231.658 291.962H295.485C295.533 291.962 295.579 291.982 295.613 292.016C295.647 292.05 295.666 292.096 295.666 292.144C295.666 292.193 295.647 292.239 295.613 292.273C295.579 292.307 295.533 292.327 295.485 292.327Z" fill="#CCCCCC"/>
<path d="M288.332 30.4922V-0.578255C288.333 -1.43794 288.674 -2.26213 289.282 -2.87002C289.889 -3.47791 290.712 -3.81985 291.571 -3.8208H317.872C318.73 -3.81985 319.554 -3.47791 320.161 -2.87002C320.768 -2.26213 321.11 -1.43794 321.111 -0.578255V30.4922C321.11 31.3519 320.768 32.176 320.161 32.7839C319.554 33.3918 318.73 33.7337 317.872 33.7347H291.571C290.712 33.7337 289.889 33.3918 289.282 32.7839C288.674 32.176 288.333 31.3519 288.332 30.4922Z" fill="#0E3B43"/>
<path d="M237.229 44.9037V13.8334C237.229 12.9737 237.571 12.1495 238.178 11.5416C238.785 10.9337 239.609 10.5918 240.468 10.5908H266.768C267.627 10.5918 268.45 10.9337 269.057 11.5416C269.665 12.1495 270.006 12.9737 270.007 13.8334V44.9038C270.006 45.7635 269.665 46.5877 269.057 47.1955C268.45 47.8034 267.627 48.1453 266.768 48.1463H240.468C239.609 48.1453 238.785 47.8034 238.178 47.1955C237.571 46.5876 237.229 45.7634 237.229 44.9037Z" fill="#CCCCCC"/>
<path d="M278.256 88.8579V57.7875C278.257 56.9278 278.598 56.1036 279.206 55.4957C279.813 54.8878 280.636 54.5459 281.495 54.5449H307.796C308.654 54.5459 309.478 54.8878 310.085 55.4957C310.692 56.1036 311.034 56.9278 311.034 57.7875V88.8579C311.034 89.7176 310.692 90.5418 310.085 91.1497C309.478 91.7575 308.654 92.0994 307.796 92.1004H281.495C280.636 92.0994 279.813 91.7575 279.206 91.1497C278.598 90.5418 278.257 89.7176 278.256 88.8579Z" fill="#FF6584"/>
<path d="M435.427 230.91H408.365C408.109 230.909 407.855 230.968 407.625 231.082L400.795 234.505C400.57 234.601 400.378 234.76 400.244 234.964C400.109 235.168 400.037 235.407 400.037 235.652C400.037 235.896 400.109 236.135 400.244 236.339C400.378 236.543 400.57 236.703 400.795 236.799L407.625 240.221C407.855 240.335 408.109 240.394 408.365 240.394H435.427C435.799 240.416 436.166 240.289 436.446 240.042C436.727 239.795 436.899 239.448 436.925 239.075V232.229C436.899 231.856 436.727 231.508 436.446 231.261C436.166 231.014 435.799 230.888 435.427 230.91Z" fill="#3F3D56"/>
<path d="M436.925 232.229V239.075C436.899 239.448 436.727 239.795 436.446 240.042C436.166 240.289 435.799 240.416 435.427 240.394H430.035V230.91H435.427C435.799 230.888 436.166 231.014 436.446 231.261C436.727 231.508 436.899 231.856 436.925 232.229Z" fill="#A3BBAD"/>
<path d="M435.223 179.694C436.448 179.164 437.772 178.9 439.107 178.918C440.442 178.937 441.758 179.237 442.969 179.8C444.179 180.363 445.258 181.175 446.133 182.185C447.008 183.194 447.661 184.377 448.047 185.656C448.168 186.061 448.26 186.475 448.323 186.893L486.166 205.679L494.923 199.869L505.82 212.427L492.448 223.3C490.84 224.597 488.857 225.341 486.793 225.42C484.729 225.5 482.695 224.912 480.992 223.742L442.597 197.162C442.311 197.283 442.02 197.389 441.723 197.481C440.445 197.868 439.1 197.98 437.776 197.81C436.451 197.64 435.178 197.192 434.039 196.495C432.899 195.799 431.92 194.868 431.165 193.766C430.409 192.664 429.895 191.415 429.656 190.1C429.585 189.718 429.539 189.332 429.516 188.945C429.41 187.004 429.9 185.077 430.92 183.423C431.94 181.769 433.442 180.468 435.223 179.694Z" fill="#FFB8B8"/>
<path d="M514.042 295.359H472.693C472.693 296.549 430.077 297.514 430.077 297.514C429.408 298.019 428.798 298.597 428.26 299.239C426.641 301.172 425.756 303.614 425.762 306.137V307.861C425.763 310.719 426.897 313.46 428.916 315.481C430.935 317.502 433.673 318.638 436.528 318.639H514.042C516.897 318.636 519.634 317.5 521.652 315.479C523.67 313.459 524.806 310.719 524.808 307.861V306.137C524.804 303.279 523.668 300.54 521.65 298.52C519.632 296.5 516.896 295.363 514.042 295.359Z" fill="#3F3D56"/>
<path d="M469.063 390.636H480.26V318.21H469.063V390.636Z" fill="#3F3D56"/>
<path d="M437.197 390.243C437.197 391.454 454.164 390.711 475.093 390.711C496.023 390.711 512.989 391.454 512.989 390.243C512.989 389.032 496.023 379.428 475.093 379.428C454.164 379.428 437.197 389.032 437.197 390.243Z" fill="#3F3D56"/>
<path d="M447.305 381.754L436.746 381.753L431.723 354.337L447.307 354.338L447.305 381.754Z" fill="#FFB8B8"/>
<path d="M449.998 392L415.951 391.999V391.567C415.951 389.825 416.294 388.1 416.96 386.491C417.626 384.881 418.602 383.419 419.833 382.187C421.063 380.955 422.524 379.978 424.132 379.311C425.74 378.644 427.463 378.301 429.203 378.301H429.204L449.998 378.302L449.998 392Z" fill="#2F2E41"/>
<path d="M431.512 364.752L410.462 317.497C408.704 313.514 408.51 309.014 409.917 304.894C411.325 300.774 414.231 297.336 418.057 295.265L463.716 270.754L484.551 268.98L503.77 267.231L503.908 267.466C504.086 267.766 508.218 274.911 505.425 282.746C503.306 288.689 497.795 293.331 489.044 296.543C468.62 304.041 445.026 310.448 435.829 312.855C435.423 312.959 435.043 313.148 434.715 313.409C434.387 313.671 434.118 313.999 433.925 314.372C433.732 314.741 433.617 315.146 433.588 315.561C433.559 315.976 433.616 316.393 433.756 316.785L453.313 360.771C453.517 361.328 453.59 361.926 453.527 362.517C453.465 363.107 453.267 363.676 452.95 364.178C452.633 364.681 452.205 365.103 451.699 365.414C451.193 365.724 450.623 365.914 450.032 365.969L435.419 367.034C435.295 367.046 435.171 367.052 435.048 367.052C434.3 367.052 433.568 366.834 432.94 366.426C432.312 366.018 431.816 365.437 431.512 364.752Z" fill="#2F2E41"/>
<path d="M452.471 381.754L441.912 381.753L436.889 354.337L452.473 354.338L452.471 381.754Z" fill="#FFB8B8"/>
<path d="M455.164 392L421.117 391.999V391.567C421.117 389.825 421.46 388.1 422.126 386.491C422.792 384.881 423.768 383.419 424.999 382.187C426.229 380.955 427.69 379.978 429.298 379.311C430.906 378.644 432.629 378.301 434.369 378.301H434.37L455.164 378.302L455.164 392Z" fill="#2F2E41"/>
<path d="M437.541 367.339L416.491 320.083C414.733 316.101 414.539 311.601 415.947 307.481C417.354 303.361 420.26 299.923 424.086 297.852L469.745 273.341L490.58 271.567L509.799 269.818L509.938 270.053C510.115 270.353 514.247 277.498 511.454 285.333C509.335 291.276 503.824 295.918 495.074 299.13C474.649 306.627 451.055 313.035 441.859 315.442C441.452 315.546 441.073 315.735 440.744 315.996C440.416 316.258 440.147 316.586 439.954 316.959C439.761 317.328 439.647 317.732 439.618 318.148C439.589 318.563 439.646 318.98 439.785 319.372L459.342 363.358C459.546 363.915 459.62 364.513 459.557 365.104C459.494 365.694 459.296 366.263 458.979 366.765C458.662 367.267 458.234 367.69 457.728 368.001C457.222 368.311 456.652 368.501 456.061 368.556L441.448 369.621C441.324 369.633 441.201 369.639 441.078 369.639C440.329 369.639 439.597 369.421 438.969 369.013C438.342 368.605 437.846 368.024 437.541 367.339Z" fill="#2F2E41"/>
<path d="M427.048 222.979C418.202 211.2 411.209 198.135 406.312 184.238C406.029 183.407 406.049 182.502 406.369 181.684C406.69 180.866 407.29 180.189 408.062 179.772L438.332 163.535C438.822 163.271 439.365 163.121 439.921 163.099C440.477 163.076 441.031 163.181 441.541 163.405C442.06 163.631 442.52 163.972 442.888 164.403C443.255 164.834 443.519 165.343 443.66 165.892C447.184 179.283 453.806 191.656 462.992 202.01C463.37 202.432 463.647 202.934 463.802 203.479C463.957 204.024 463.986 204.597 463.886 205.154C463.791 205.703 463.571 206.223 463.244 206.674C462.917 207.125 462.492 207.495 462.001 207.757L431.731 223.993C430.957 224.407 430.061 224.532 429.204 224.346C428.346 224.16 427.582 223.675 427.048 222.979Z" fill="#CCCCCC"/>
<path d="M429.115 221.425C429.277 221.628 429.506 221.768 429.761 221.821C430.016 221.874 430.282 221.836 430.512 221.714L460.781 205.476C460.928 205.4 461.056 205.29 461.153 205.156C461.251 205.022 461.316 204.867 461.344 204.703C461.375 204.53 461.366 204.352 461.318 204.184C461.269 204.015 461.182 203.86 461.064 203.73C451.607 193.071 444.789 180.334 441.162 166.547C441.12 166.377 441.039 166.219 440.926 166.085C440.813 165.951 440.67 165.845 440.509 165.776C440.358 165.708 440.193 165.676 440.027 165.683C439.861 165.69 439.699 165.735 439.553 165.815L409.284 182.052C409.055 182.176 408.876 182.376 408.778 182.618C408.681 182.86 408.671 183.129 408.75 183.377C413.56 197.026 420.427 209.857 429.115 221.425Z" fill="white"/>
<path d="M527.609 218.647L503.903 227.665L498.115 211.571C497.347 209.434 497.358 207.093 498.146 204.963C498.934 202.834 500.45 201.051 502.424 199.931C504.42 198.799 506.756 198.418 509.009 198.858C511.262 199.298 513.283 200.531 514.707 202.332L527.609 218.647Z" fill="#A3BBAD"/>
<path d="M467.311 282.417C466.813 282.063 466.394 281.608 466.085 281.08C465.776 280.553 465.582 279.965 465.517 279.357C462.481 250.982 464.596 228.776 471.982 211.471C473.282 208.486 475.242 205.835 477.714 203.718C480.185 201.6 483.104 200.071 486.25 199.245L505.413 198.276L505.512 198.324C509.837 200.445 513.363 203.904 515.569 208.188C517.775 212.473 518.543 217.355 517.759 222.111C511.595 238.376 506.435 255.309 510.37 268.969C510.535 269.54 510.584 270.139 510.512 270.729C510.44 271.319 510.25 271.889 509.954 272.404C509.666 272.902 509.279 273.335 508.818 273.677C508.356 274.02 507.83 274.264 507.27 274.395L470.771 283.087C470.18 283.228 469.565 283.241 468.969 283.125C468.372 283.01 467.807 282.768 467.311 282.417Z" fill="#0E3B43"/>
<path d="M499.017 191.111C510.7 191.111 520.171 181.63 520.171 169.934C520.171 158.239 510.7 148.757 499.017 148.757C487.334 148.757 477.863 158.239 477.863 169.934C477.863 181.63 487.334 191.111 499.017 191.111Z" fill="#FFB8B8"/>
<path d="M440.319 186.707L423.833 193.992C423.206 194.268 422.495 194.284 421.856 194.037C421.218 193.789 420.703 193.298 420.426 192.67L420.018 191.746C419.742 191.118 419.726 190.406 419.974 189.767C420.221 189.127 420.712 188.612 421.338 188.335L437.824 181.049C438.451 180.773 439.162 180.757 439.801 181.005C440.44 181.253 440.954 181.744 441.232 182.371L441.639 183.296C441.915 183.924 441.931 184.635 441.684 185.275C441.436 185.914 440.945 186.429 440.319 186.707Z" fill="#CCCCCC"/>
<path d="M446.348 197.915L429.862 205.201C429.235 205.477 428.524 205.493 427.886 205.245C427.247 204.997 426.732 204.506 426.455 203.879L426.047 202.954C425.771 202.327 425.755 201.615 426.003 200.975C426.25 200.336 426.741 199.821 427.368 199.543L443.854 192.258C444.481 191.982 445.192 191.966 445.83 192.214C446.469 192.461 446.984 192.953 447.261 193.58L447.669 194.504C447.945 195.132 447.961 195.844 447.713 196.483C447.466 197.123 446.975 197.638 446.348 197.915Z" fill="#CCCCCC"/>
<path d="M459.062 241.696L422.308 212.669C422.015 212.772 421.718 212.86 421.416 212.933C420.119 213.237 418.772 213.264 417.464 213.012C416.155 212.761 414.914 212.237 413.821 211.474C412.721 210.711 411.797 209.721 411.109 208.571C410.422 207.422 409.988 206.138 409.837 204.807C409.59 202.678 410.069 200.529 411.196 198.707C412.323 196.886 414.032 195.499 416.046 194.772C417.302 194.321 418.64 194.14 419.971 194.243C421.302 194.345 422.596 194.728 423.769 195.366C424.942 196.004 425.968 196.883 426.778 197.945C427.588 199.007 428.165 200.229 428.47 201.529C428.565 201.942 428.631 202.36 428.668 202.782L465.256 223.912L474.361 218.664L484.447 231.884L470.31 241.971C468.655 243.142 466.667 243.748 464.641 243.698C462.615 243.649 460.658 242.947 459.062 241.696Z" fill="#FFB8B8"/>
<path d="M488.932 236L467.961 221.724L477.816 207.751C479.125 205.895 481.047 204.562 483.242 203.988C485.437 203.414 487.765 203.635 489.813 204.612C491.885 205.601 493.535 207.299 494.466 209.399C495.397 211.499 495.547 213.863 494.889 216.065L488.932 236Z" fill="#A3BBAD"/>
<path d="M491.262 166.78C485.825 170.505 478.686 174.334 473.133 170.367C469.487 167.763 468.338 162.939 469.816 158.706C472.475 151.094 479.781 147.743 486.767 145.174C495.848 141.835 505.737 139.178 515.112 141.569C524.487 143.961 532.773 153.048 531.081 162.584C529.72 170.253 522.494 176.634 523.52 184.355C524.552 192.125 533.281 196.215 540.987 197.604C548.694 198.993 557.317 199.439 562.856 204.98C569.921 212.049 568.157 224.685 561.509 232.148C554.861 239.612 544.828 242.995 535.107 245.295C522.227 248.342 508.297 249.944 496.064 244.886C483.831 239.829 474.312 226.216 477.856 213.45C479.353 208.058 482.879 203.501 486.286 199.065C489.694 194.628 493.145 189.989 494.445 184.546C495.528 180.01 494.726 174.744 491.721 171.341C491.175 170.746 490.831 169.992 490.739 169.189C490.647 168.385 490.812 167.573 491.209 166.87L491.262 166.78Z" fill="#2F2E41"/>
<path d="M93.9417 269.671C88.4908 271.589 82.6383 272.069 76.948 271.066C71.2578 270.062 65.9216 267.609 61.4535 263.942C50.0744 254.38 46.5067 238.628 43.6038 224.043C40.7417 209.662 37.8797 195.282 35.0176 180.901L52.9937 193.293C65.9211 202.204 79.1397 211.4 88.0906 224.307C97.0415 237.215 100.949 254.834 93.7568 268.8" fill="#00CC39"/>
<path d="M92.4043 321.902C94.2237 308.635 96.0946 295.197 94.8184 281.788C93.6849 269.879 90.0556 258.247 82.6668 248.71C78.7448 243.657 73.9726 239.328 68.5645 235.917C67.1543 235.026 65.8563 237.263 67.2604 238.15C76.6179 244.071 83.8556 252.813 87.9299 263.117C92.43 274.575 93.1526 287.066 92.3772 299.238C91.9082 306.599 90.9143 313.911 89.9128 321.215C89.8338 321.545 89.8831 321.893 90.0506 322.188C90.2181 322.484 90.4913 322.704 90.8151 322.806C91.1454 322.895 91.4975 322.85 91.795 322.681C92.0925 322.512 92.3115 322.232 92.4043 321.902Z" fill="#524E4E"/>
<path d="M74.8791 298.426C72.5413 301.983 69.3278 304.877 65.5483 306.83C61.7688 308.783 57.5506 309.728 53.3002 309.575C42.3765 309.056 33.2697 301.424 25.0718 294.178L0.824219 272.746L16.8721 271.977C28.4128 271.424 40.2513 270.908 51.2434 274.471C62.2355 278.034 72.373 286.608 74.383 297.998" fill="#00CC39"/>
<path d="M97.5466 329.529C88.7894 314.017 78.6318 296.777 60.482 291.267C55.4354 289.74 50.1438 289.193 44.892 289.655C43.2368 289.798 43.6502 292.352 45.3024 292.21C54.1054 291.478 62.8915 293.805 70.1815 298.799C77.1964 303.579 82.6583 310.225 87.2812 317.272C90.1129 321.589 92.6494 326.089 95.1863 330.583C95.997 332.019 98.3668 330.982 97.5466 329.529Z" fill="#524E4E"/>
<path d="M111.578 345.857C111.282 342.434 110.055 339.158 108.029 336.386C106.002 333.613 103.255 331.45 100.086 330.133V321.165H85.061V330.416C82.0478 331.798 79.4546 333.955 77.5457 336.668C75.6369 339.38 74.4807 342.551 74.1951 345.857L70.6621 386.97H115.111L111.578 345.857Z" fill="#115C4A"/>
</g>
<defs>
<clipPath id="clip0_400_389">
<rect width="596" height="431" fill="white"/>
</clipPath>
</defs>
</svg>
