<svg width="597" height="506" viewBox="0 0 597 506" fill="none" xmlns="http://www.w3.org/2000/svg">
<g clip-path="url(#clip0_400_252)">
<path d="M575.427 413.696H21.4851C9.63843 413.696 0 404.058 0 392.211V325.54H596.912V392.211C596.912 404.058 587.274 413.696 575.427 413.696Z" fill="#E6E6E6"/>
<path d="M370.149 402.543H228.887V503.445H370.149V402.543Z" fill="#E6E6E6"/>
<path d="M378.647 490.699H220.391V503.445H378.647V490.699Z" fill="#E6E6E6"/>
<path d="M596.381 353.686H0V14.7442C0 6.6144 6.6144 0 14.7442 0H581.637C589.767 0 596.381 6.6144 596.381 14.7442V353.686Z" fill="#3F3D56"/>
<path d="M582.043 15.4009H13.8086V335.099H582.043V15.4009Z" fill="#292929"/>
<path d="M123.853 205.95C128.202 202.356 133.581 201.687 135.868 204.455C138.154 207.223 136.482 212.38 132.131 215.974C130.412 217.434 128.369 218.461 126.173 218.969L107.553 233.963L100.703 225.075L119.786 211.237C120.7 209.175 122.094 207.362 123.853 205.95Z" fill="#FFB6B6"/>
<path d="M16.2313 239.779C16.2218 239.116 16.228 233.332 20.5101 229.676C25.429 225.477 32.3699 227.177 34.8044 227.773C40.428 229.15 40.8892 231.563 46.1704 234.041C56.0509 238.679 43.671 236.305 49.5502 234.818C51.5852 234.303 80.8623 232.273 88.15 227.787C102.323 219.064 111.981 213.774 111.981 213.774L118.294 226.4C118.294 226.4 109.165 239.094 96.317 248.498C83.1377 258.143 76.548 262.966 66.5335 264.83C65.6711 264.99 44.4613 268.612 27.3784 255.849C23.4819 252.938 16.3425 247.604 16.2313 239.779Z" fill="#0E3B43"/>
<path d="M35.8149 207.667C47.9611 207.667 57.8076 197.821 57.8076 185.675C57.8076 173.529 47.9611 163.682 35.8149 163.682C23.6687 163.682 13.8223 173.529 13.8223 185.675C13.8223 197.821 23.6687 207.667 35.8149 207.667Z" fill="#FFB6B6"/>
<path d="M208.054 333.43L185.405 310.246L173.713 322.442L190.588 344.671L207.326 346.586L208.054 333.43Z" fill="#FFB6B6"/>
<path d="M78.7247 289.954C80.0494 290.064 84.2593 290.908 88.2832 288.694C91.0293 287.183 92.4377 284.936 92.9134 284.222C98.8148 275.359 121.466 261.537 141.794 260.687C146.398 260.494 149.428 261.028 152.182 262.463C156.088 264.499 157.647 267.415 162.602 274.246C165.313 277.983 168.313 281.503 171.056 285.216C187.118 306.952 193.207 308.658 192.585 315.627C191.895 323.359 183.556 330.694 178.014 329.847C175.744 329.5 174.865 327.922 171.833 324.727C162.942 315.36 159.263 317.09 152.933 309.915C145.543 301.538 146.51 294.592 142.654 294.324C139.079 294.075 137.559 300 129.925 307.872C126.432 311.474 123.945 313.126 116.367 318.383C86.8561 338.856 86.3851 340.295 80.4295 341.928C77.8238 342.642 59.33 347.713 52.7419 339.644C42.4324 327.017 66.7878 288.962 78.7247 289.954Z" fill="#2F2E41"/>
<path d="M201.129 338.669C202.795 337.921 204.742 337.046 205.369 335.035C205.793 333.674 205.549 331.996 204.672 330.837C203.661 329.499 202.164 329.323 202.225 329.086C202.317 328.725 205.856 328.866 209.742 330.24C210.475 330.499 213.797 331.713 218.022 335.011C221.407 337.654 220.952 338.184 223.075 339.708C229.591 344.386 235.703 340.699 239.229 345.086C240.59 346.779 241.17 349.183 240.598 351.126C239.447 355.03 233.855 356.373 230.798 357.066C223.437 358.737 217.865 357.373 212.046 356.393C192.26 353.059 181.142 356.095 179.655 351.511C179.373 350.644 179.83 350.718 181.356 344.351C182.862 338.067 182.812 336.341 184.095 335.838C186.025 335.081 187.321 338.526 192.184 339.705C196.494 340.75 200.049 339.154 201.129 338.669Z" fill="#2F2E41"/>
<path d="M167.786 409.275L162.064 377.373L145.541 380.899L147.021 408.768L159.796 419.751L167.786 409.275Z" fill="#FFB6B6"/>
<path d="M85.1868 300.678C86.2211 301.513 89.231 304.574 93.8037 305.002C96.9244 305.294 99.3513 304.226 100.146 303.902C110.006 299.882 136.51 301.165 153.808 311.876C157.726 314.302 159.934 316.445 161.406 319.179C163.495 323.057 163.147 326.345 163.412 334.781C163.557 339.395 164.062 343.992 164.247 348.605C165.332 375.61 169.412 380.441 164.984 385.858C160.071 391.867 149.053 393.255 144.942 389.442C143.259 387.88 143.418 386.081 142.703 381.735C140.606 368.991 136.591 368.357 135.382 358.865C133.971 347.784 138.672 342.579 135.632 340.192C132.813 337.978 128.228 342.028 117.491 344.255C112.578 345.274 109.592 345.244 100.37 345.339C64.4546 345.708 63.257 346.634 57.4122 344.641C54.8549 343.769 36.705 337.579 35.7846 327.203C34.3444 310.966 75.8665 293.154 85.1868 300.678Z" fill="#2F2E41"/>
<path d="M159.116 409.722C160.914 410.038 163.017 410.408 164.665 409.096C165.78 408.208 166.52 406.682 166.446 405.231C166.36 403.556 165.221 402.569 165.404 402.407C165.683 402.161 168.532 404.265 170.976 407.583C171.437 408.21 173.504 411.079 175.148 416.181C176.465 420.269 175.791 420.452 176.691 422.905C179.457 430.435 186.584 430.816 187.038 436.426C187.214 438.591 186.344 440.906 184.779 442.193C181.635 444.777 176.253 442.748 173.335 441.605C166.306 438.853 162.461 434.596 158.197 430.518C143.697 416.648 132.792 412.918 134.135 408.289C134.389 407.413 134.727 407.731 139.564 403.32C144.339 398.966 145.267 397.51 146.61 397.814C148.633 398.271 147.771 401.85 151.133 405.556C154.112 408.841 157.95 409.516 159.116 409.722Z" fill="#2F2E41"/>
<path d="M38.8143 189.879C39.6704 186.817 38.5951 185.7 39.6911 184.326C39.6912 184.326 40.1322 183.772 44.0755 182.28C42.9121 175.529 43.7832 174.388 43.7832 174.388C44.7872 173.072 46.7984 172.754 48.1676 172.926C51.0634 173.29 51.576 175.908 53.4289 175.849C55.9885 175.768 59.0585 170.644 58.1056 166.204C57.3283 162.581 53.9768 159.891 53.1366 160.358C52.3036 160.821 49.3049 158.78 48.1676 159.188C47.391 159.468 43.7353 159.096 42.9064 159.481C42.0011 159.901 39.4087 162.516 39.1609 162.186C37.4385 159.897 37.4752 159.097 36.4759 158.604C34.7053 157.73 32.7802 159.346 29.4609 160.942C22.6313 164.227 20.6315 162.268 17.4769 165.034C15.8834 166.432 15.0288 169.103 13.3848 174.388C11.0857 181.779 9.9361 185.474 11.0465 189.002C12.1789 192.601 13.8464 191.818 16.3077 196.894C19.0476 202.545 18.1033 205.83 20.6921 207.124C22.693 208.125 25.9085 207.488 27.1226 205.663C29.2012 202.538 23.8286 198.311 25.6611 193.387C26.786 190.364 30.2559 188.072 32.3838 188.71C34.7899 189.432 34.9671 193.746 36.4759 193.679C37.768 193.622 38.6651 190.413 38.8143 189.879Z" fill="#2F2E41"/>
<path d="M22.1543 210.924C26.6548 205.878 44.9863 211.101 46.7069 219.108C47.4146 222.402 44.802 223.793 45.5378 227.585C46.6138 233.131 52.7068 232.753 57.2295 238.4C63.6502 246.416 57.0355 254.251 64.2445 267.629C65.7849 270.487 67.0833 272.897 69.798 275.228C76.0276 280.579 81.8252 278.744 84.9973 283.705C87.3693 287.415 86.3947 291.987 86.1664 293.058C85.2303 297.45 82.693 298.521 80.9052 302.119C77.9306 308.107 81.2985 312.503 81.4897 319.657C81.729 328.608 76.9724 341.015 67.4597 345.086C56.7726 349.66 43.8831 342.085 37.6458 334.564C33.924 330.076 32.8436 325.936 31.2154 320.826C23.9385 297.989 19.8273 300.054 14.2624 281.951C7.90073 261.256 6.6501 237.011 14.2624 229.339C15.2714 228.322 18.0481 225.971 19.816 221.739C22.1949 216.044 20.1397 213.183 22.1543 210.924Z" fill="#0E3B43"/>
<path d="M88.6528 328.391C92.1421 332.824 92.6829 338.218 89.8612 340.438C87.0394 342.658 81.9243 340.864 78.4344 336.428C77.016 334.676 76.038 332.609 75.5821 330.401L61.0352 311.43L68.5518 305.697L83.4633 324.2C85.503 325.162 87.2825 326.599 88.6528 328.391Z" fill="#FFB6B6"/>
<path d="M35.3768 230.155C36.024 230.011 41.6876 228.837 46.1402 232.283C51.2551 236.241 51.0073 243.383 50.9204 245.888C50.7197 251.674 48.4522 252.618 47.1032 258.294C44.5794 268.912 49.3857 278.781 52.0411 284.233C52.9603 286.12 55.9132 291.895 61.7912 298.114C73.2233 310.209 83.4236 316.574 83.4236 316.574L72.4656 326.314C72.4656 326.314 55.0107 320.994 43.1833 310.335C31.0511 299.401 12.3939 260.716 8.52627 251.292C8.19319 250.481 12.9112 263.674 21.9198 244.347C23.9746 239.938 27.7394 231.861 35.3768 230.155Z" fill="#0E3B43"/>
<path d="M315.838 221.081L302.754 214.883C308.12 222.372 312.744 234.069 315.22 243.376C319.411 234.706 326.168 224.098 332.856 217.762L319.028 221.319C327.549 179.559 359.598 149.58 396.298 149.58L396.818 148.071C358.483 148.071 324.538 177.635 315.838 221.081Z" fill="white"/>
<path d="M376.056 284.71H293.388C289.882 284.71 287.029 281.857 287.029 278.351C287.029 274.844 289.882 271.992 293.388 271.992H376.056C379.563 271.992 382.415 274.844 382.415 278.351C382.415 281.857 379.563 284.71 376.056 284.71Z" fill="#0E3B43"/>
<path d="M486.056 284.71H403.388C399.882 284.71 397.029 281.857 397.029 278.351C397.029 274.844 399.882 271.992 403.388 271.992H486.056C489.563 271.992 492.415 274.844 492.415 278.351C492.415 281.857 489.563 284.71 486.056 284.71Z" fill="#E6E6E6"/>
<path d="M437.119 111.717H356.762C354.736 111.717 353.088 110.069 353.088 108.043C353.088 106.017 354.736 104.37 356.762 104.37H437.119C439.145 104.37 440.793 106.017 440.793 108.043C440.793 110.069 439.145 111.717 437.119 111.717Z" fill="white"/>
<path d="M480.239 150.916H313.641C311.615 150.916 309.967 149.267 309.967 147.241C309.967 145.216 311.615 143.568 313.641 143.568H480.239C482.265 143.568 483.913 145.216 483.913 147.241C483.913 149.267 482.265 150.916 480.239 150.916Z" fill="white"/>
<path d="M164.368 222.297C164.226 222.297 164.085 222.292 163.943 222.283C155.574 221.745 126.938 217.693 109.843 188.135C108.434 185.701 108.711 182.607 110.533 180.436L142.193 142.715C143.488 141.172 145.488 140.283 147.513 140.308C148.913 140.341 152.228 140.695 152.872 143.25C156.675 158.346 172.735 176.097 192.049 178.45C194.007 178.688 195.578 180.434 196.253 183.121C196.779 185.213 196.293 187.37 194.918 189.038L169.556 219.836C168.267 221.4 166.377 222.297 164.368 222.297ZM147.392 141.825C145.844 141.825 144.34 142.518 143.356 143.69L111.696 181.412C110.283 183.095 110.067 185.491 111.157 187.374C127.875 216.281 155.862 220.242 164.041 220.767C165.711 220.879 167.315 220.168 168.384 218.87L193.746 188.072C194.811 186.78 195.188 185.111 194.781 183.491C194.382 181.906 193.407 180.144 191.865 179.956C171.913 177.526 155.325 159.203 151.399 143.62C151.081 142.359 149.167 141.866 147.482 141.826C147.452 141.825 147.422 141.825 147.392 141.825Z" fill="white"/>
<path d="M129.029 189.376L151.855 166.103C153.415 164.512 150.97 162.064 149.408 163.657L126.583 186.93C125.022 188.521 127.467 190.969 129.029 189.376Z" fill="#E6E6E6"/>
<path d="M142.806 195.933C149.106 190.286 154.58 183.749 159.063 176.575C160.246 174.681 157.254 172.943 156.075 174.829C151.742 181.764 146.45 188.028 140.36 193.486C138.699 194.975 141.152 197.416 142.806 195.933Z" fill="#E6E6E6"/>
<path d="M155.223 203.784C160.959 197.431 165.841 190.34 169.684 182.691C170.682 180.707 167.698 178.953 166.697 180.945C162.983 188.335 158.319 195.198 152.777 201.338C151.288 202.987 153.727 205.441 155.223 203.784Z" fill="#E6E6E6"/>
<path d="M145.444 161.885C158.154 161.885 168.457 151.799 168.457 139.357C168.457 126.916 158.154 116.83 145.444 116.83C132.735 116.83 122.432 126.916 122.432 139.357C122.432 151.799 132.735 161.885 145.444 161.885Z" fill="#0E3B43"/>
<path d="M157.417 150.044C153.878 141.342 150.339 132.64 146.8 123.938C146.311 122.737 144.78 122.694 144.303 123.938C140.806 133.061 138.52 142.581 137.422 152.287C137.235 153.94 139.826 153.927 140.011 152.287C140.441 148.489 141.08 144.719 141.899 140.989C144.815 141.142 147.756 140.815 150.57 140.036C152.02 143.601 153.47 147.167 154.92 150.732C155.54 152.255 158.046 151.589 157.417 150.044ZM142.486 138.429C143.358 134.859 144.404 131.331 145.617 127.86L149.586 137.618C147.262 138.228 144.884 138.5 142.486 138.429Z" fill="white"/>
</g>
<defs>
<clipPath id="clip0_400_252">
<rect width="596.912" height="505.575" fill="white"/>
</clipPath>
</defs>
</svg>
