<svg width="38" height="26" viewBox="0 0 38 26" fill="none" xmlns="http://www.w3.org/2000/svg">
<path d="M37.6862 1.35355C37.8815 1.15829 37.8815 0.841709 37.6862 0.646447C37.491 0.451184 37.1744 0.451184 36.9791 0.646447L37.6862 1.35355ZM13.4993 24.8333L13.1458 25.1869C13.3411 25.3822 13.6576 25.3822 13.8529 25.1869L13.4993 24.8333ZM-0.000651121 14C-0.000651121 15.4728 1.19326 16.6667 2.66602 16.6667C4.13877 16.6667 5.33268 15.4728 5.33268 14C5.33268 12.5272 4.13877 11.3333 2.66602 11.3333C1.19326 11.3333 -0.000651121 12.5272 -0.000651121 14ZM36.9791 0.646447L13.1458 24.4798L13.8529 25.1869L37.6862 1.35355L36.9791 0.646447ZM13.8529 24.4798L3.01957 13.6464L2.31246 14.3536L13.1458 25.1869L13.8529 24.4798Z" fill="#54DE62"/>
</svg>
