<svg width="24" height="16" viewBox="0 0 24 16" fill="none" xmlns="http://www.w3.org/2000/svg">
<path d="M23.7104 7.31249L16.7077 0.278033C16.5192 0.0972508 16.2676 -0.00253035 16.0066 4.87818e-05C15.7456 0.00262791 15.4959 0.107362 15.3111 0.291833C15.1263 0.476303 15.021 0.725851 15.0177 0.987057C15.0145 1.24826 15.1135 1.50037 15.2936 1.68942L20.5569 6.97555H1.05989C0.923836 6.96721 0.787515 6.98682 0.659321 7.03319C0.531126 7.07955 0.413771 7.15169 0.314482 7.24515C0.215192 7.33862 0.13607 7.45143 0.0819853 7.57665C0.027901 7.70187 0 7.83684 0 7.97325C0 8.10967 0.027901 8.24464 0.0819853 8.36986C0.13607 8.49508 0.215192 8.60789 0.314482 8.70136C0.413771 8.79482 0.531126 8.86695 0.659321 8.91332C0.787515 8.95969 0.923836 8.9793 1.05989 8.97096H20.6355L15.2974 14.2533C15.1958 14.3437 15.1138 14.4538 15.0562 14.577C14.9986 14.7002 14.9668 14.8338 14.9626 14.9697C14.9585 15.1057 14.982 15.241 15.0319 15.3675C15.0818 15.494 15.157 15.6089 15.2528 15.7054C15.3487 15.8018 15.4631 15.8776 15.5893 15.9282C15.7154 15.9788 15.8505 16.0031 15.9863 15.9997C16.1221 15.9962 16.2558 15.9651 16.3792 15.9081C16.5026 15.8512 16.6131 15.7696 16.7039 15.6685L23.7067 8.72761C23.7997 8.63477 23.8734 8.52448 23.9238 8.40307C23.9741 8.28165 24 8.1515 24 8.02005C24 7.8886 23.9741 7.75845 23.9238 7.63703C23.8734 7.51562 23.7997 7.40533 23.7067 7.31249H23.7104Z" fill="#000"/>
</svg>
