<svg width="24" height="17" viewBox="0 0 24 17" fill="none" xmlns="http://www.w3.org/2000/svg">
<path d="M23.7104 8.25487L16.7077 1.20539C16.5192 1.02422 16.2676 0.924222 16.0066 0.926807C15.7456 0.929391 15.4959 1.03435 15.3111 1.21921C15.1263 1.40408 15.021 1.65416 15.0177 1.91592C15.0145 2.17769 15.1135 2.43034 15.2936 2.61978L20.5569 7.91722H1.05989C0.923836 7.90885 0.787515 7.92851 0.659321 7.97498C0.531126 8.02144 0.413771 8.09373 0.314482 8.18739C0.215192 8.28106 0.13607 8.39411 0.0819853 8.5196C0.027901 8.64508 0 8.78034 0 8.91705C0 9.05376 0.027901 9.18902 0.0819853 9.3145C0.13607 9.43999 0.215192 9.55305 0.314482 9.64671C0.413771 9.74037 0.531126 9.81266 0.659321 9.85913C0.787515 9.90559 0.923836 9.92525 1.05989 9.91689H20.6355L15.2974 15.2106C15.1958 15.3011 15.1138 15.4115 15.0562 15.5349C14.9986 15.6584 14.9668 15.7923 14.9626 15.9285C14.9585 16.0647 14.982 16.2003 15.0319 16.3271C15.0818 16.4538 15.157 16.5691 15.2528 16.6657C15.3487 16.7623 15.4631 16.8383 15.5893 16.889C15.7154 16.9397 15.8505 16.9641 15.9863 16.9606C16.1221 16.9572 16.2558 16.9259 16.3792 16.8689C16.5026 16.8118 16.6131 16.7301 16.7039 16.6287L23.7067 9.67302C23.7997 9.57998 23.8734 9.46945 23.9238 9.34778C23.9741 9.22611 24 9.09567 24 8.96395C24 8.83222 23.9741 8.70179 23.9238 8.58011C23.8734 8.45844 23.7997 8.34792 23.7067 8.25487H23.7104Z" fill="white"/>
</svg>
