<svg width="265" height="30" viewBox="0 0 265 30" fill="none" xmlns="http://www.w3.org/2000/svg">
<path d="M0.49 24V3H10.75C13.39 3 15.37 3.5 16.69 4.5C18.03 5.5 18.7 6.82 18.7 8.46C18.7 9.56 18.43 10.52 17.89 11.34C17.35 12.14 16.61 12.76 15.67 13.2C14.73 13.64 13.65 13.86 12.43 13.86L13 12.63C14.32 12.63 15.49 12.85 16.51 13.29C17.53 13.71 18.32 14.34 18.88 15.18C19.46 16.02 19.75 17.05 19.75 18.27C19.75 20.07 19.04 21.48 17.62 22.5C16.2 23.5 14.11 24 11.35 24H0.49ZM5.32 20.34H10.99C12.25 20.34 13.2 20.14 13.84 19.74C14.5 19.32 14.83 18.66 14.83 17.76C14.83 16.88 14.5 16.23 13.84 15.81C13.2 15.37 12.25 15.15 10.99 15.15H4.96V11.61H10.15C11.33 11.61 12.23 11.41 12.85 11.01C13.49 10.59 13.81 9.96 13.81 9.12C13.81 8.3 13.49 7.69 12.85 7.29C12.23 6.87 11.33 6.66 10.15 6.66H5.32V20.34ZM32.0095 24.24C30.1695 24.24 28.5495 23.88 27.1495 23.16C25.7695 22.44 24.6995 21.46 23.9395 20.22C23.1795 18.96 22.7995 17.53 22.7995 15.93C22.7995 14.31 23.1695 12.88 23.9095 11.64C24.6695 10.38 25.6995 9.4 26.9995 8.7C28.2995 7.98 29.7695 7.62 31.4095 7.62C32.9895 7.62 34.4095 7.96 35.6695 8.64C36.9495 9.3 37.9595 10.26 38.6995 11.52C39.4395 12.76 39.8095 14.25 39.8095 15.99C39.8095 16.17 39.7995 16.38 39.7795 16.62C39.7595 16.84 39.7395 17.05 39.7195 17.25H26.6095V14.52H37.2595L35.4595 15.33C35.4595 14.49 35.2895 13.76 34.9495 13.14C34.6095 12.52 34.1395 12.04 33.5395 11.7C32.9395 11.34 32.2395 11.16 31.4395 11.16C30.6395 11.16 29.9295 11.34 29.3095 11.7C28.7095 12.04 28.2395 12.53 27.8995 13.17C27.5595 13.79 27.3895 14.53 27.3895 15.39V16.11C27.3895 16.99 27.5795 17.77 27.9595 18.45C28.3595 19.11 28.9095 19.62 29.6095 19.98C30.3295 20.32 31.1695 20.49 32.1295 20.49C32.9895 20.49 33.7395 20.36 34.3795 20.1C35.0395 19.84 35.6395 19.45 36.1795 18.93L38.6695 21.63C37.9295 22.47 36.9995 23.12 35.8795 23.58C34.7595 24.02 33.4695 24.24 32.0095 24.24ZM42.5687 24V21.18L52.1087 9.9L52.9187 11.46H42.7787V7.86H56.6988V10.68L47.1587 21.96L46.3187 20.4H56.9688V24H42.5687ZM70.4078 24.24C69.0478 24.24 67.8578 23.94 66.8378 23.34C65.8178 22.74 65.0178 21.83 64.4378 20.61C63.8778 19.37 63.5978 17.81 63.5978 15.93C63.5978 14.03 63.8678 12.47 64.4078 11.25C64.9478 10.03 65.7278 9.12 66.7478 8.52C67.7678 7.92 68.9878 7.62 70.4078 7.62C71.9278 7.62 73.2878 7.97 74.4878 8.67C75.7078 9.35 76.6678 10.31 77.3678 11.55C78.0878 12.79 78.4478 14.25 78.4478 15.93C78.4478 17.63 78.0878 19.1 77.3678 20.34C76.6678 21.58 75.7078 22.54 74.4878 23.22C73.2878 23.9 71.9278 24.24 70.4078 24.24ZM60.8678 29.82V7.86H65.3378V11.16L65.2478 15.96L65.5478 20.73V29.82H60.8678ZM69.5978 20.4C70.3778 20.4 71.0678 20.22 71.6678 19.86C72.2878 19.5 72.7778 18.99 73.1378 18.33C73.5178 17.65 73.7078 16.85 73.7078 15.93C73.7078 14.99 73.5178 14.19 73.1378 13.53C72.7778 12.87 72.2878 12.36 71.6678 12C71.0678 11.64 70.3778 11.46 69.5978 11.46C68.8178 11.46 68.1178 11.64 67.4978 12C66.8778 12.36 66.3878 12.87 66.0278 13.53C65.6678 14.19 65.4878 14.99 65.4878 15.93C65.4878 16.85 65.6678 17.65 66.0278 18.33C66.3878 18.99 66.8778 19.5 67.4978 19.86C68.1178 20.22 68.8178 20.4 69.5978 20.4ZM82.4807 24V7.86H87.1607V24H82.4807ZM84.8207 5.61C83.9607 5.61 83.2607 5.36 82.7207 4.86C82.1807 4.36 81.9107 3.74 81.9107 3C81.9107 2.26 82.1807 1.64 82.7207 1.14C83.2607 0.639999 83.9607 0.389998 84.8207 0.389998C85.6807 0.389998 86.3807 0.629999 86.9207 1.11C87.4607 1.57 87.7307 2.17 87.7307 2.91C87.7307 3.69 87.4607 4.34 86.9207 4.86C86.4007 5.36 85.7007 5.61 84.8207 5.61ZM100.414 24.24C98.5741 24.24 96.9541 23.88 95.5541 23.16C94.1741 22.44 93.1041 21.46 92.3441 20.22C91.5841 18.96 91.2041 17.53 91.2041 15.93C91.2041 14.31 91.5741 12.88 92.3141 11.64C93.0741 10.38 94.1041 9.4 95.4041 8.7C96.7041 7.98 98.1741 7.62 99.8141 7.62C101.394 7.62 102.814 7.96 104.074 8.64C105.354 9.3 106.364 10.26 107.104 11.52C107.844 12.76 108.214 14.25 108.214 15.99C108.214 16.17 108.204 16.38 108.184 16.62C108.164 16.84 108.144 17.05 108.124 17.25H95.0141V14.52H105.664L103.864 15.33C103.864 14.49 103.694 13.76 103.354 13.14C103.014 12.52 102.544 12.04 101.944 11.7C101.344 11.34 100.644 11.16 99.8441 11.16C99.0441 11.16 98.3341 11.34 97.7141 11.7C97.1141 12.04 96.6441 12.53 96.3041 13.17C95.9641 13.79 95.7941 14.53 95.7941 15.39V16.11C95.7941 16.99 95.9841 17.77 96.3641 18.45C96.7641 19.11 97.3141 19.62 98.0141 19.98C98.7341 20.32 99.5741 20.49 100.534 20.49C101.394 20.49 102.144 20.36 102.784 20.1C103.444 19.84 104.044 19.45 104.584 18.93L107.074 21.63C106.334 22.47 105.404 23.12 104.284 23.58C103.164 24.02 101.874 24.24 100.414 24.24ZM120.03 24.24C118.29 24.24 116.74 23.89 115.38 23.19C114.02 22.47 112.95 21.48 112.17 20.22C111.41 18.96 111.03 17.53 111.03 15.93C111.03 14.31 111.41 12.88 112.17 11.64C112.95 10.38 114.02 9.4 115.38 8.7C116.74 7.98 118.29 7.62 120.03 7.62C121.73 7.62 123.21 7.98 124.47 8.7C125.73 9.4 126.66 10.41 127.26 11.73L123.63 13.68C123.21 12.92 122.68 12.36 122.04 12C121.42 11.64 120.74 11.46 120 11.46C119.2 11.46 118.48 11.64 117.84 12C117.2 12.36 116.69 12.87 116.31 13.53C115.95 14.19 115.77 14.99 115.77 15.93C115.77 16.87 115.95 17.67 116.31 18.33C116.69 18.99 117.2 19.5 117.84 19.86C118.48 20.22 119.2 20.4 120 20.4C120.74 20.4 121.42 20.23 122.04 19.89C122.68 19.53 123.21 18.96 123.63 18.18L127.26 20.16C126.66 21.46 125.73 22.47 124.47 23.19C123.21 23.89 121.73 24.24 120.03 24.24ZM129.657 24V21.18L139.197 9.9L140.007 11.46H129.867V7.86H143.787V10.68L134.247 21.96L133.407 20.4H144.057V24H129.657ZM155.761 24.24C153.921 24.24 152.301 23.88 150.901 23.16C149.521 22.44 148.451 21.46 147.691 20.22C146.931 18.96 146.551 17.53 146.551 15.93C146.551 14.31 146.921 12.88 147.661 11.64C148.421 10.38 149.451 9.4 150.751 8.7C152.051 7.98 153.521 7.62 155.161 7.62C156.741 7.62 158.161 7.96 159.421 8.64C160.701 9.3 161.711 10.26 162.451 11.52C163.191 12.76 163.561 14.25 163.561 15.99C163.561 16.17 163.551 16.38 163.531 16.62C163.511 16.84 163.491 17.05 163.471 17.25H150.361V14.52H161.011L159.211 15.33C159.211 14.49 159.041 13.76 158.701 13.14C158.361 12.52 157.891 12.04 157.291 11.7C156.691 11.34 155.991 11.16 155.191 11.16C154.391 11.16 153.681 11.34 153.061 11.7C152.461 12.04 151.991 12.53 151.651 13.17C151.311 13.79 151.141 14.53 151.141 15.39V16.11C151.141 16.99 151.331 17.77 151.711 18.45C152.111 19.11 152.661 19.62 153.361 19.98C154.081 20.32 154.921 20.49 155.881 20.49C156.741 20.49 157.491 20.36 158.131 20.1C158.791 19.84 159.391 19.45 159.931 18.93L162.421 21.63C161.681 22.47 160.751 23.12 159.631 23.58C158.511 24.02 157.221 24.24 155.761 24.24ZM177.386 7.62C178.666 7.62 179.806 7.88 180.806 8.4C181.826 8.9 182.626 9.68 183.206 10.74C183.786 11.78 184.076 13.12 184.076 14.76V24H179.396V15.48C179.396 14.18 179.106 13.22 178.526 12.6C177.966 11.98 177.166 11.67 176.126 11.67C175.386 11.67 174.716 11.83 174.116 12.15C173.536 12.45 173.076 12.92 172.736 13.56C172.416 14.2 172.256 15.02 172.256 16.02V24H167.576V7.86H172.046V12.33L171.206 10.98C171.786 9.9 172.616 9.07 173.696 8.49C174.776 7.91 176.006 7.62 177.386 7.62ZM173.126 5.79L177.176 1.47H182.216L176.786 5.79H173.126ZM194.649 24.24C193.269 24.24 191.939 24.08 190.659 23.76C189.399 23.42 188.399 23 187.659 22.5L189.219 19.14C189.959 19.6 190.829 19.98 191.829 20.28C192.849 20.56 193.849 20.7 194.829 20.7C195.909 20.7 196.669 20.57 197.109 20.31C197.569 20.05 197.799 19.69 197.799 19.23C197.799 18.85 197.619 18.57 197.259 18.39C196.919 18.19 196.459 18.04 195.879 17.94C195.299 17.84 194.659 17.74 193.959 17.64C193.279 17.54 192.589 17.41 191.889 17.25C191.189 17.07 190.549 16.81 189.969 16.47C189.389 16.13 188.919 15.67 188.559 15.09C188.219 14.51 188.049 13.76 188.049 12.84C188.049 11.82 188.339 10.92 188.919 10.14C189.519 9.36 190.379 8.75 191.499 8.31C192.619 7.85 193.959 7.62 195.519 7.62C196.619 7.62 197.739 7.74 198.879 7.98C200.019 8.22 200.969 8.57 201.729 9.03L200.169 12.36C199.389 11.9 198.599 11.59 197.799 11.43C197.019 11.25 196.259 11.16 195.519 11.16C194.479 11.16 193.719 11.3 193.239 11.58C192.759 11.86 192.519 12.22 192.519 12.66C192.519 13.06 192.689 13.36 193.029 13.56C193.389 13.76 193.859 13.92 194.439 14.04C195.019 14.16 195.649 14.27 196.329 14.37C197.029 14.45 197.729 14.58 198.429 14.76C199.129 14.94 199.759 15.2 200.319 15.54C200.899 15.86 201.369 16.31 201.729 16.89C202.089 17.45 202.269 18.19 202.269 19.11C202.269 20.11 201.969 21 201.369 21.78C200.769 22.54 199.899 23.14 198.759 23.58C197.639 24.02 196.269 24.24 194.649 24.24ZM212.656 24.24C210.756 24.24 209.276 23.76 208.216 22.8C207.156 21.82 206.626 20.37 206.626 18.45V4.29H211.306V18.39C211.306 19.07 211.486 19.6 211.846 19.98C212.206 20.34 212.696 20.52 213.316 20.52C214.056 20.52 214.686 20.32 215.206 19.92L216.466 23.22C215.986 23.56 215.406 23.82 214.726 24C214.066 24.16 213.376 24.24 212.656 24.24ZM204.136 11.82V8.22H215.326V11.82H204.136ZM223.39 24L217.57 7.86H221.98L226.81 21.75H224.71L229.75 7.86H233.71L238.6 21.75H236.5L241.48 7.86H245.62L239.77 24H235.24L230.95 12.09H232.33L227.89 24H223.39ZM255.936 24.24C254.216 24.24 252.686 23.88 251.346 23.16C250.026 22.44 248.976 21.46 248.196 20.22C247.436 18.96 247.056 17.53 247.056 15.93C247.056 14.31 247.436 12.88 248.196 11.64C248.976 10.38 250.026 9.4 251.346 8.7C252.686 7.98 254.216 7.62 255.936 7.62C257.636 7.62 259.156 7.98 260.496 8.7C261.836 9.4 262.886 10.37 263.646 11.61C264.406 12.85 264.786 14.29 264.786 15.93C264.786 17.53 264.406 18.96 263.646 20.22C262.886 21.46 261.836 22.44 260.496 23.16C259.156 23.88 257.636 24.24 255.936 24.24ZM255.936 20.4C256.716 20.4 257.416 20.22 258.036 19.86C258.656 19.5 259.146 18.99 259.506 18.33C259.866 17.65 260.046 16.85 260.046 15.93C260.046 14.99 259.866 14.19 259.506 13.53C259.146 12.87 258.656 12.36 258.036 12C257.416 11.64 256.716 11.46 255.936 11.46C255.156 11.46 254.456 11.64 253.836 12C253.216 12.36 252.716 12.87 252.336 13.53C251.976 14.19 251.796 14.99 251.796 15.93C251.796 16.85 251.976 17.65 252.336 18.33C252.716 18.99 253.216 19.5 253.836 19.86C254.456 20.22 255.156 20.4 255.936 20.4Z" fill="white"/>
</svg>
