<svg width="46" height="35" viewBox="0 0 46 35" fill="none" xmlns="http://www.w3.org/2000/svg">
<path d="M23.0317 34L45 10.5361M23.0317 34L1 10.3793M23.0317 34L15.9524 10.4326M45 10.5361L37.1905 1M45 10.5361L29.9841 10.4826M37.1905 1L29.9841 10.4826M37.1905 1H23.0635M8.93651 1L1 10.3793M8.93651 1H23.0635M8.93651 1L15.9524 10.4326M1 10.3793L15.9524 10.4326M29.9841 10.4826L23.0635 1M29.9841 10.4826L15.9524 10.4326M23.0635 1L15.9524 10.4326" stroke="#000"/>
<path d="M23 34L30 11" stroke="#000"/>
</svg>
