<svg width="65" height="48" viewBox="0 0 65 48" fill="none" xmlns="http://www.w3.org/2000/svg">
<path fill-rule="evenodd" clip-rule="evenodd" d="M7.88791 48C7.24819 48 4.96707 44.3745 4.96707 43.7211C22.5355 30.2617 19.7637 27.4789 19.8665 27.0643C19.9692 26.6496 14.1672 28.6428 10.7154 27.7171C2.92822 25.6193 -1.63363 17.8141 0.543233 10.3177C2.30776 4.24352 8.11118 0 14.6562 0C15.9894 0 17.3206 0.177076 18.6132 0.525557C23.7484 1.90751 27.6093 6.01239 29.4851 12.0815C31.1783 17.557 31.1357 24.1832 29.3712 30.2617C24.094 44.222 8.52764 48 7.88791 48Z" fill="#330F74"/>
<path fill-rule="evenodd" clip-rule="evenodd" d="M41.174 48C40.5343 48 38.2532 44.3745 38.2532 43.7211C55.8216 30.2617 53.0499 27.4789 53.1526 27.0643C53.2554 26.6496 47.4534 28.6428 44.0016 27.7171C36.2144 25.6193 31.6525 17.8141 33.8294 10.3177C35.5939 4.24352 41.3973 0 47.9423 0C49.2755 0 50.6068 0.177076 51.8994 0.525557C57.0346 1.90751 60.8954 6.01239 62.7712 12.0815C64.4644 17.557 64.4219 24.1832 62.6574 30.2617C57.3801 44.222 41.8138 48 41.174 48Z" fill="#330F74"/>
</svg>
